<?xml version="1.0" encoding="utf-8"?>
<!-- Generator: Adobe Illustrator 16.0.0, SVG Export Plug-In . SVG Version: 6.00 Build 0)  -->
<!DOCTYPE svg PUBLIC "-//W3C//DTD SVG 1.1//EN" "http://www.w3.org/Graphics/SVG/1.1/DTD/svg11.dtd">
<svg version="1.1" xmlns="http://www.w3.org/2000/svg" xmlns:xlink="http://www.w3.org/1999/xlink" x="0px" y="0px" viewBox="0 0 120 120" enable-background="new 0 0 120 120" xml:space="preserve">
<g id="Calque_10">
	<g>
		<g id="XMLID_7_">
			<g>
				<polygon points="96.803,37.373 91.503,44.208 86.268,40.141 89.859,31.964 				"/>
				<polygon points="103.531,42.607 96.5,48.102 91.503,44.208 96.803,37.373 				"/>
				<polygon points="56.804,89.204 76.555,89.204 81.898,113 17,113 22.387,88.966 23.49,89.204 				"/>
				<polygon points="58.102,7 59.552,13.49 39.347,13.49 40.796,7 				"/>
			</g>
			<g>
				<polygon fill="none" stroke="#000000" stroke-width="2" stroke-miterlimit="10" points="22.387,88.966 17,113 81.898,113 
					76.555,89.204 72.099,69.367 59.552,13.49 58.102,7 40.796,7 39.347,13.49 				"/>
				<polyline fill="none" stroke="#000000" stroke-width="2" stroke-miterlimit="10" points="23.49,89.204 56.804,89.204 
					76.555,89.204 77.571,89.204 				"/>
				
					<line fill="none" stroke="#000000" stroke-width="2" stroke-miterlimit="10" x1="96.803" y1="37.373" x2="103.531" y2="28.633"/>
				<polyline fill="none" stroke="#000000" stroke-width="2" stroke-miterlimit="10" points="45.123,104.347 56.804,89.204 
					72.099,69.367 91.503,44.208 				"/>
				<polygon fill="none" stroke="#000000" stroke-width="2" stroke-miterlimit="10" points="96.803,37.373 103.531,42.607 
					96.5,48.102 91.503,44.208 86.268,40.141 89.859,31.964 				"/>
				<polyline fill="none" stroke="#000000" stroke-width="2" stroke-miterlimit="10" points="38.633,13.49 39.347,13.49 
					59.552,13.49 60.266,13.49 				"/>
			</g>
		</g>
	</g>
</g>
</svg>
