<?xml version="1.0" encoding="utf-8"?>
<!-- Generator: Adobe Illustrator 16.0.0, SVG Export Plug-In . SVG Version: 6.00 Build 0)  -->
<!DOCTYPE svg PUBLIC "-//W3C//DTD SVG 1.1//EN" "http://www.w3.org/Graphics/SVG/1.1/DTD/svg11.dtd">
<svg version="1.1" xmlns="http://www.w3.org/2000/svg" xmlns:xlink="http://www.w3.org/1999/xlink" x="0px" y="0px" viewBox="0 0 120 120" enable-background="new 0 0 120 120" xml:space="preserve">
<g id="Calque_8">
	<path fill-rule="evenodd" clip-rule="evenodd" d="M60.801,7.182c0.465,0.766,1.291,1.511,1.338,2.302
		c0.518,8.868,4.641,15.904,10.516,22.31c3.711,4.049,7.141,8.452,10.105,13.076c6.088,9.486,4.797,19.577,1.27,29.536
		c-1.488,4.211-3.666,8.177-5.531,12.255c-0.432-0.191-0.863-0.383-1.297-0.574c0.918-2.168,1.857-4.325,2.75-6.503
		c3.615-8.832,5.781-17.792,1.869-27.12c-3.623-8.632-9.826-14.339-19.682-16.912c0,1.841,0,3.204,0,4.566
		c0,17.903,0.051,35.805-0.018,53.708c-0.043,10.929-8.66,19.125-19.521,18.756c-4.582-0.156-8.212-2.141-10.176-6.276
		c-2.042-4.297-0.593-8.164,2.398-11.597c6.198-7.115,14.752-9.334,24.824-6.082c0-27.135,0-54.107,0-81.079
		C60.031,7.426,60.418,7.304,60.801,7.182z"/>
</g>
</svg>
