<?xml version="1.0" encoding="utf-8"?>
<!-- Generator: Adobe Illustrator 16.0.0, SVG Export Plug-In . SVG Version: 6.00 Build 0)  -->
<!DOCTYPE svg PUBLIC "-//W3C//DTD SVG 1.1//EN" "http://www.w3.org/Graphics/SVG/1.1/DTD/svg11.dtd">
<svg version="1.1" id="jaleos" xmlns="http://www.w3.org/2000/svg" xmlns:xlink="http://www.w3.org/1999/xlink" x="0px" y="0px"
	 width="120px" height="120px" viewBox="0 0 120 120" enable-background="new 0 0 120 120" xml:space="preserve">
<path fill-rule="evenodd" clip-rule="evenodd" stroke="#000000" stroke-miterlimit="10" d="M19.612,57.598
	c0.358-2.227,0.723-4.451,1.075-6.679c0.178-1.13,0.333-2.265,0.519-3.533c12.437,3.083,24.796,6.146,37.155,9.209
	c0,0.068,0,0.138,0,0.207c-0.333,0.033-0.665,0.086-0.998,0.1c-11.938,0.462-23.877,0.921-35.816,1.387
	c-0.646,0.025-1.29,0.113-1.935,0.17C19.612,58.174,19.612,57.885,19.612,57.598z"/>
<path fill-rule="evenodd" clip-rule="evenodd" stroke="#000000" stroke-miterlimit="10" d="M66.77,13.018
	c-0.246,2.355-0.454,4.714-0.746,7.063c-1.033,8.312-2.094,16.621-3.146,24.932c-0.215,1.705-0.437,3.41-0.837,5.12
	c-2.068-11.79-4.136-23.581-6.227-35.498c2.354-0.336,4.592-0.641,6.825-0.978c1.236-0.186,2.464-0.424,3.697-0.64
	C66.48,13.018,66.626,13.018,66.77,13.018z"/>
<path fill-rule="evenodd" clip-rule="evenodd" stroke="#000000" stroke-miterlimit="10" d="M97.592,28.64
	c2.143,3.187,4.207,6.255,6.339,9.427c-12.399,5.796-24.739,11.564-37.079,17.333c-0.043-0.059-0.086-0.12-0.13-0.179
	C76.977,46.391,87.23,37.562,97.592,28.64z"/>
<path fill-rule="evenodd" clip-rule="evenodd" stroke="#000000" stroke-miterlimit="10" d="M59.921,61.029
	c-4.127,11.766-8.254,23.531-12.413,35.388c-3.707-1.049-7.324-2.072-11.094-3.138c7.827-10.867,15.565-21.609,23.304-32.354
	C59.786,60.96,59.853,60.995,59.921,61.029z"/>
<path fill-rule="evenodd" clip-rule="evenodd" stroke="#000000" stroke-miterlimit="10" d="M84.322,98.024
	c-6.266-12.427-12.456-24.702-18.646-36.979c0.053-0.041,0.105-0.08,0.159-0.12C74.62,71.172,83.403,81.42,92.244,91.73
	C89.616,93.818,87.03,95.872,84.322,98.024z"/>
<path fill-rule="evenodd" clip-rule="evenodd" stroke="#000000" stroke-miterlimit="10" d="M70.304,42.263
	c2.544-6.558,5.087-13.114,7.689-19.825c2.124,1.052,4.192,2.076,6.34,3.14c-4.668,5.657-9.271,11.235-13.873,16.812
	C70.408,42.348,70.356,42.306,70.304,42.263z"/>
<path fill-rule="evenodd" clip-rule="evenodd" stroke="#000000" stroke-miterlimit="10" d="M39.549,42.495
	c1.09-2.154,2.106-4.163,3.147-6.22c5.127,5.177,10.165,10.264,15.131,15.278C51.869,48.6,45.766,45.576,39.549,42.495z"/>
<path fill-rule="evenodd" clip-rule="evenodd" stroke="#000000" stroke-miterlimit="10" d="M92.803,64.839
	c-6.715-1.537-13.264-3.036-19.811-4.538c0.006-0.069,0.013-0.14,0.018-0.211c6.571-0.502,13.144-1.005,19.793-1.512
	C92.803,60.684,92.803,62.712,92.803,64.839z"/>
<path fill-rule="evenodd" clip-rule="evenodd" stroke="#000000" stroke-miterlimit="10" d="M33.628,71.137
	c6.175-3.06,12.279-6.082,18.383-9.104c0.035,0.055,0.07,0.108,0.105,0.163c-5.09,4.539-10.18,9.078-15.315,13.659
	C35.716,74.241,34.696,72.724,33.628,71.137z"/>
<path fill-rule="evenodd" clip-rule="evenodd" stroke="#000000" stroke-miterlimit="10" d="M62.289,65.887
	c1.003,7.453,2.006,14.909,3.021,22.457c-1.612,0-3.104,0-4.734,0c0.501-7.497,1-14.946,1.498-22.394
	C62.146,65.928,62.218,65.907,62.289,65.887z"/>
<polygon fill-rule="evenodd" clip-rule="evenodd" stroke="#000000" stroke-miterlimit="10" points="30.143,24.474 23.637,22.275 
	18.131,26.37 18.218,19.524 12.609,15.57 19.169,13.538 21.209,7 25.176,12.59 32.045,12.503 27.937,17.99 "/>
<polygon fill-rule="evenodd" clip-rule="evenodd" stroke="#000000" stroke-miterlimit="10" points="100.165,18.225 97.069,16.663 
	94.022,18.318 94.558,14.901 92.036,12.525 95.462,11.976 96.95,8.852 98.533,11.93 101.975,12.375 99.525,14.826 "/>
<polygon fill-rule="evenodd" clip-rule="evenodd" stroke="#000000" stroke-miterlimit="10" points="108.525,85.922 102.027,82.177 
	95.247,85.389 96.813,78.071 91.653,72.638 99.12,71.861 102.71,65.293 105.759,72.128 113.139,73.503 107.556,78.503 "/>
<polygon fill-rule="evenodd" clip-rule="evenodd" stroke="#000000" stroke-miterlimit="10" points="14.467,72.382 11.379,69.273 
	7.059,70.045 9.072,66.159 7,62.303 11.332,63.008 14.371,59.854 15.035,64.178 18.986,66.084 15.065,68.049 "/>
<ellipse fill-rule="evenodd" clip-rule="evenodd" stroke="#000000" stroke-miterlimit="10" cx="16.703" cy="38.313" rx="4.703" ry="4.687"/>
<ellipse fill-rule="evenodd" clip-rule="evenodd" stroke="#000000" stroke-miterlimit="10" cx="102.255" cy="51.553" rx="3.135" ry="3.125"/>
<ellipse fill-rule="evenodd" clip-rule="evenodd" stroke="#000000" stroke-miterlimit="10" cx="74.56" cy="98.94" rx="2.613" ry="2.603"/>
<ellipse fill-rule="evenodd" clip-rule="evenodd" stroke="#000000" stroke-miterlimit="10" cx="59.929" cy="107.272" rx="5.748" ry="5.728"/>
<ellipse fill-rule="evenodd" clip-rule="evenodd" stroke="#000000" stroke-miterlimit="10" cx="27.531" cy="86.442" rx="4.703" ry="4.687"/>
<ellipse fill-rule="evenodd" clip-rule="evenodd" stroke="#000000" stroke-miterlimit="10" cx="46.865" cy="24.474" rx="2.09" ry="2.083"/>
<polygon fill-rule="evenodd" clip-rule="evenodd" stroke="#000000" stroke-miterlimit="10" points="28.053,104.534 21.215,106.354 
	18.844,113 14.993,107.082 7.918,106.888 12.376,101.409 10.375,94.645 16.981,97.177 22.819,93.188 22.444,100.234 "/>
<circle fill-rule="evenodd" clip-rule="evenodd" stroke="#000000" stroke-miterlimit="10" cx="77.5" cy="11.5" r="3.5"/>
<circle fill-rule="evenodd" clip-rule="evenodd" stroke="#000000" stroke-miterlimit="10" cx="106" cy="103" r="7"/>
</svg>
