<?xml version="1.0" encoding="utf-8"?>
<!-- Generator: Adobe Illustrator 16.0.0, SVG Export Plug-In . SVG Version: 6.00 Build 0)  -->
<!DOCTYPE svg PUBLIC "-//W3C//DTD SVG 1.1//EN" "http://www.w3.org/Graphics/SVG/1.1/DTD/svg11.dtd">
<svg version="1.1" xmlns="http://www.w3.org/2000/svg" xmlns:xlink="http://www.w3.org/1999/xlink" x="0px" y="0px" width="120px"
	 height="120px" viewBox="0 0 120 120" enable-background="new 0 0 120 120" xml:space="preserve">
<g id="Calque_1" display="none">
	<path display="inline" fill="#FFFFFF" d="M-50.715,111.285c0-57.083,0-114.167,0-171.25c57.083,0,114.166,0,171.25,0
		c0,57.083,0,114.167,0,171.25C63.451,111.285,6.369,111.285-50.715,111.285z M-31.049,90.077c-0.528-0.095-0.875-0.128-1.204-0.222
		c-5.396-1.537-11.104,0.649-14.134,5.42c-2.783,4.383-0.493,8.892,4.693,9.025c4.854,0.126,12.483-4.003,12.282-11.429
		c-0.341-12.561-0.093-25.137-0.093-37.707c0-5.46-0.015-5.529,5.257-6.701c9.268-2.06,18.556-4.026,27.991-6.065
		c0,13.466,0,26.723,0,40.072c-0.406-0.073-0.746-0.106-1.069-0.198c-5.448-1.545-11.434,0.852-14.28,5.725
		c-2.292,3.924-0.778,7.447,3.661,8.549c4.881,1.21,13.621-3.853,13.523-10.479c-0.25-16.935-0.082-33.875-0.092-50.814
		c0-0.679-0.107-1.356-0.181-2.224c-12.208,2.612-24.226,5.184-36.354,7.779C-31.049,57.363-31.049,73.658-31.049,90.077z
		 M-8.23,13.801c0.088,0.087,0.176,0.173,0.264,0.26c0.755-2.284,2.102-4.556,2.148-6.854c0.122-6.075-0.347-12.161-0.521-18.244
		c-0.049-1.733,0.011-3.481,0.183-5.207c0.404-4.052-0.317-7.902-2.686-11.168c-2.287-3.154-4.879-6.12-7.597-8.915
		c-2.249-2.313-4.034-4.7-4.319-8.017c-0.041-0.477-0.556-0.913-0.851-1.368c-0.233,0.084-0.466,0.168-0.698,0.253
		c0,18.911,0,37.822,0,56.814c-6.583-1.827-12.126-0.154-15.3,4.443c-2.508,3.633-1.243,7.757,2.862,9.333
		c6.115,2.348,13.904-3.134,13.947-9.885c0.052-8.289,0.012-16.58,0.025-24.869c0.001-0.737,0.102-1.473,0.183-2.565
		c3.547,2.595,6.822,4.881,9.971,7.329c2.502,1.946,4.185,4.586,3.966,7.803C-6.9,6.582-7.682,10.184-8.23,13.801z M61.298,28.182
		c-0.261,0.083-0.522,0.166-0.783,0.248c0,18.272,0,36.544,0,54.927c-6.823-2.203-12.618-0.7-16.817,4.12
		c-2.026,2.326-3.007,4.945-1.625,7.856c1.331,2.802,3.79,4.146,6.894,4.252c7.358,0.25,13.196-5.303,13.224-12.706
		c0.047-12.128,0.013-24.256,0.013-36.385c0-0.923,0-1.846,0-3.093c6.677,1.743,10.879,5.609,13.332,11.457
		c2.651,6.319,1.185,12.389-1.266,18.373c-0.604,1.475-1.241,2.937-1.862,4.405c0.293,0.13,0.585,0.259,0.878,0.389
		c1.264-2.763,2.738-5.449,3.748-8.302c2.389-6.747,3.263-13.583-0.86-20.01c-2.009-3.132-4.332-6.115-6.847-8.858
		c-3.979-4.339-6.773-9.106-7.124-15.114C62.172,29.206,61.612,28.701,61.298,28.182z M29.05,20.525
		c0.729-0.095,1.178-0.103,1.6-0.216c1.895-0.51,3.087-1.827,2.624-3.704c-0.337-1.365-1.265-3.013-2.417-3.646
		c-1.68-0.922-3.819-0.261-4.456,1.646c-0.535,1.603-0.61,3.727,0,5.269c1.252,3.161,4.723,4.45,8.305,3.657
		c2.826-0.627,5.027-3.179,5.095-6.406c0.052-2.473-0.215-4.972-0.558-7.429c-0.291-2.081-0.089-3.453,2.023-4.759
		c4.067-2.514,5.321-6.598,4.334-11.182c-0.877-4.07-3.529-6.455-7.75-6.971c-0.504-0.062-1.125-0.162-1.454-0.485
		c-0.92-0.907-0.676-6.724,0.259-7.716c5.696-6.047,7.897-13.003,5.249-21.079c-0.567-1.732-1.77-3.257-2.679-4.877
		c-1.44,1.462-3.341,2.689-4.228,4.433c-2.18,4.291-2.764,8.975-1.929,13.766c0.352,2.019,0.106,3.535-1.594,5.182
		c-2.976,2.884-5.947,6.001-8.016,9.548C18.971-6.75,22.987,3.933,31.057,6.528c2.034,0.654,4.303,0.58,6.83,0.885
		c0.24,3.134,0.682,6.399,0.677,9.664c-0.004,2.543-1.608,4.362-4.025,5.104C32.652,22.76,30.67,22.859,29.05,20.525z
		 M96.238-42.285c-0.358,0.077-0.716,0.154-1.073,0.231c0,17.976,0,35.952,0,54.023c-7.083-1.942-14.562,0.798-17.904,6.32
		c-2.904,4.799-0.088,10.1,5.507,10.701c6.831,0.734,14.74-6.51,14.442-13.078c-0.358-7.92-0.082-15.869-0.081-23.806
		c0-10.523,0.022-21.046-0.039-31.568C97.084-40.403,96.534-41.343,96.238-42.285z"/>
	<path display="inline" fill-rule="evenodd" clip-rule="evenodd" d="M-31.049,90.077c0-16.419,0-32.714,0-49.269
		c12.128-2.595,24.147-5.167,36.354-7.779c0.073,0.868,0.18,1.545,0.181,2.224c0.01,16.938-0.158,33.879,0.092,50.814
		c0.098,6.627-8.642,11.689-13.523,10.479c-4.439-1.102-5.953-4.625-3.661-8.549c2.846-4.873,8.832-7.27,14.28-5.725
		c0.324,0.092,0.663,0.125,1.069,0.198c0-13.35,0-26.606,0-40.072c-9.436,2.039-18.724,4.005-27.991,6.065
		c-5.272,1.172-5.257,1.241-5.257,6.701c0,12.57-0.249,25.146,0.093,37.707c0.202,7.426-7.428,11.555-12.282,11.429
		c-5.186-0.134-7.476-4.643-4.693-9.025c3.029-4.771,8.738-6.957,14.134-5.42C-31.924,89.949-31.577,89.982-31.049,90.077z
		 M-29.117,45.941c3.302-0.709,6.575-1.415,9.849-2.115c7.029-1.502,14.063-2.984,21.086-4.519c1.11-0.242,2.72-0.297,1.687-2.389
		c-2.503,0.538-5.002,1.077-7.502,1.61c-7.806,1.669-15.617,3.319-23.415,5.024C-28.499,43.791-30.125,43.849-29.117,45.941z"/>
	<path display="inline" fill-rule="evenodd" clip-rule="evenodd" d="M-8.23,13.801C-7.682,10.184-6.9,6.582-6.653,2.944
		c0.219-3.216-1.463-5.856-3.966-7.803c-3.148-2.448-6.423-4.733-9.971-7.329c-0.081,1.092-0.182,1.829-0.183,2.565
		c-0.013,8.29,0.027,16.58-0.025,24.869c-0.042,6.751-7.832,12.233-13.947,9.885c-4.105-1.576-5.37-5.7-2.862-9.333
		c3.174-4.598,8.717-6.271,15.3-4.443c0-18.992,0-37.903,0-56.814c0.232-0.084,0.465-0.168,0.698-0.253
		c0.295,0.455,0.811,0.891,0.851,1.368c0.285,3.317,2.07,5.704,4.319,8.017c2.718,2.795,5.31,5.761,7.597,8.915
		c2.369,3.267,3.089,7.117,2.686,11.168c-0.172,1.725-0.232,3.474-0.183,5.207C-6.165-4.954-5.696,1.131-5.818,7.207
		c-0.046,2.298-1.394,4.57-2.148,6.854C-8.054,13.974-8.143,13.888-8.23,13.801z M-7.841-5.171
		c1.626-5.519-5.08-14.286-12.929-17.608C-19.751-14.501-12.063-11.407-7.841-5.171z M-7.493-15.839
		c1.355-5.642-5.838-14.933-13.469-17.543c0.846,2.261,1.67,4.632,3.179,6.429C-14.55-23.103-10.964-19.548-7.493-15.839z"/>
	<path display="inline" fill-rule="evenodd" clip-rule="evenodd" d="M61.298,28.182c0.314,0.519,0.874,1.024,0.905,1.56
		c0.351,6.008,3.145,10.774,7.124,15.114c2.515,2.743,4.838,5.726,6.847,8.858c4.123,6.427,3.249,13.263,0.86,20.01
		c-1.01,2.853-2.484,5.539-3.748,8.302c-0.293-0.13-0.585-0.259-0.878-0.389c0.621-1.469,1.258-2.931,1.862-4.405
		c2.45-5.983,3.917-12.054,1.266-18.373c-2.453-5.848-6.655-9.714-13.332-11.457c0,1.247,0,2.17,0,3.093
		c0,12.129,0.034,24.257-0.013,36.385c-0.028,7.403-5.866,12.956-13.224,12.706c-3.104-0.105-5.563-1.45-6.894-4.252
		c-1.383-2.911-0.401-5.53,1.625-7.856c4.199-4.82,9.994-6.323,16.817-4.12c0-18.383,0-36.655,0-54.927
		C60.776,28.348,61.037,28.265,61.298,28.182z"/>
	<path display="inline" fill-rule="evenodd" clip-rule="evenodd" d="M29.05,20.525c1.62,2.334,3.602,2.235,5.489,1.656
		c2.417-0.743,4.021-2.562,4.025-5.104c0.005-3.264-0.438-6.529-0.677-9.664c-2.526-0.305-4.795-0.23-6.83-0.885
		C22.987,3.933,18.971-6.75,23.46-14.446c2.069-3.547,5.04-6.664,8.016-9.548c1.7-1.647,1.946-3.163,1.594-5.182
		c-0.835-4.791-0.251-9.475,1.929-13.766c0.886-1.743,2.788-2.97,4.228-4.433c0.91,1.62,2.112,3.145,2.679,4.877
		c2.648,8.075,0.447,15.032-5.249,21.079c-0.935,0.992-1.179,6.81-0.259,7.716c0.328,0.324,0.949,0.423,1.454,0.485
		c4.22,0.516,6.873,2.901,7.75,6.971c0.987,4.584-0.267,8.668-4.334,11.182c-2.113,1.307-2.314,2.678-2.023,4.759
		c0.342,2.457,0.61,4.956,0.558,7.429c-0.068,3.227-2.269,5.779-5.095,6.406c-3.582,0.793-7.053-0.496-8.305-3.657
		c-0.61-1.542-0.536-3.666,0-5.269c0.637-1.907,2.776-2.568,4.456-1.646c1.152,0.633,2.08,2.281,2.417,3.646
		c0.463,1.876-0.729,3.193-2.624,3.704C30.229,20.422,29.779,20.43,29.05,20.525z M34.21-19.237
		c-4.431,3.549-8.404,6.945-9.698,12.407c-0.949,4,0.305,7.405,3.341,10.088c2.751,2.431,5.935,3.237,9.62,2.194
		c-0.595-4.635-1.165-9.072-1.733-13.509c-0.273-0.151-0.546-0.303-0.82-0.454c-1.152,1.314-2.62,2.468-3.389,3.978
		c-1.448,2.844,0.558,4.852,2.472,6.778C30.8,1.21,29.378-1.143,29.074-4.105c-0.338-3.289,1.096-6.041,3.885-7.659
		c1.954-1.134,2.188-2.493,1.836-4.348C34.629-16.983,34.468-17.856,34.21-19.237z M34.627-27.021
		c3.518-2.867,6.249-5.812,6.79-10.083c0.16-1.264-0.756-2.665-1.18-4.003c-1.244,0.632-2.93,0.948-3.652,1.955
		C34.083-35.662,33.976-31.619,34.627-27.021z M36.963-8.38c0.595,4.495,1.175,8.879,1.769,13.37
		c3.257-1.695,4.826-4.598,4.352-7.687C42.605-5.818,40.729-7.643,36.963-8.38z"/>
	<path display="inline" fill-rule="evenodd" clip-rule="evenodd" d="M96.238-42.285c0.296,0.941,0.846,1.881,0.852,2.825
		c0.062,10.522,0.039,21.045,0.039,31.568c-0.001,7.937-0.277,15.885,0.081,23.806c0.298,6.567-7.611,13.812-14.442,13.078
		c-5.595-0.602-8.411-5.902-5.507-10.701c3.343-5.522,10.821-8.263,17.904-6.32c0-18.071,0-36.047,0-54.023
		C95.522-42.13,95.88-42.208,96.238-42.285z"/>
	<path display="inline" fill-rule="evenodd" clip-rule="evenodd" fill="#FFFFFF" d="M-29.117,45.941
		c-1.008-2.092,0.618-2.15,1.704-2.388c7.798-1.706,15.609-3.355,23.415-5.024c2.5-0.534,4.999-1.073,7.502-1.61
		c1.034,2.092-0.576,2.147-1.687,2.389c-7.023,1.535-14.057,3.017-21.086,4.519C-22.542,44.526-25.814,45.232-29.117,45.941z"/>
	<path display="inline" fill-rule="evenodd" clip-rule="evenodd" fill="#FFFFFF" d="M-7.841-5.171
		c-4.222-6.236-11.91-9.331-12.929-17.608C-12.921-19.457-6.215-10.69-7.841-5.171z"/>
	<path display="inline" fill-rule="evenodd" clip-rule="evenodd" fill="#FFFFFF" d="M-7.493-15.839
		c-3.471-3.708-7.057-7.263-10.29-11.114c-1.509-1.797-2.333-4.168-3.179-6.429C-13.331-30.772-6.138-21.481-7.493-15.839z"/>
	<path display="inline" fill-rule="evenodd" clip-rule="evenodd" fill="#FFFFFF" d="M34.21-19.237
		c0.258,1.38,0.419,2.253,0.584,3.125c0.352,1.855,0.118,3.214-1.836,4.348c-2.789,1.618-4.223,4.37-3.885,7.659
		c0.305,2.962,1.727,5.315,4.929,6.351c-1.914-1.927-3.919-3.934-2.472-6.778c0.769-1.51,2.236-2.664,3.389-3.978
		c0.273,0.151,0.546,0.302,0.82,0.454c0.569,4.437,1.139,8.874,1.733,13.509c-3.686,1.042-6.869,0.236-9.62-2.194
		c-3.036-2.684-4.29-6.088-3.341-10.088C25.806-12.292,29.779-15.688,34.21-19.237z"/>
	<path display="inline" fill-rule="evenodd" clip-rule="evenodd" fill="#FFFFFF" d="M34.627-27.021
		c-0.652-4.598-0.544-8.642,1.958-12.131c0.722-1.007,2.408-1.323,3.652-1.955c0.423,1.338,1.34,2.739,1.18,4.003
		C40.876-32.832,38.146-29.888,34.627-27.021z"/>
	<path display="inline" fill-rule="evenodd" clip-rule="evenodd" fill="#FFFFFF" d="M36.963-8.38
		c3.766,0.737,5.642,2.562,6.121,5.683c0.474,3.089-1.095,5.992-4.352,7.687C38.138,0.499,37.558-3.885,36.963-8.38z"/>
</g>
<g id="Calque_2">
</g>
<g id="noire" display="none">
	<path display="inline" fill-rule="evenodd" clip-rule="evenodd" stroke="#000000" stroke-width="4" stroke-miterlimit="10" d="
		M75.938,94.056c-0.043,11.03-8.741,19.305-19.705,18.933c-4.626-0.157-8.291-2.161-10.273-6.336
		c-2.06-4.338-0.598-8.24,2.421-11.707c6.256-7.183,14.892-9.423,25.057-6.14c0-27.393,0-54.621,0-81.848
		c0.39-0.123,0.779-0.247,1.168-0.37c0.469,0.773,1.304,1.526,1.35,2.324L75.938,94.056z"/>
</g>
<g id="croche" display="none">
	<path display="inline" fill-rule="evenodd" clip-rule="evenodd" stroke="#000000" stroke-width="4" stroke-miterlimit="10" d="
		M60.801,7.182c0.465,0.766,1.291,1.511,1.338,2.302c0.518,8.868,4.641,15.904,10.516,22.31c3.711,4.049,7.141,8.452,10.105,13.076
		c6.088,9.486,4.797,19.577,1.27,29.536c-1.488,4.211-3.666,8.177-5.531,12.255c-0.432-0.191-0.863-0.383-1.297-0.574
		c0.918-2.168,1.857-4.325,2.75-6.503c3.615-8.832,5.781-17.792,1.869-27.12c-3.623-8.632-9.826-14.339-19.682-16.912
		c0,1.841,0,3.204,0,4.566c0,17.903,0.051,35.805-0.018,53.708c-0.043,10.929-8.66,19.125-19.521,18.756
		c-4.582-0.156-8.212-2.141-10.176-6.276c-2.042-4.297-0.593-8.164,2.398-11.597c6.198-7.115,14.752-9.334,24.824-6.082
		c0-27.135,0-54.107,0-81.079C60.031,7.426,60.418,7.304,60.801,7.182z"/>
</g>
<g id="cajon" display="none">
	<g display="inline">
		<g id="XMLID_1_">
			<g>
				<polygon fill="#FFFFFF" points="96.758,14.628 96.658,14.925 45.145,17.897 23.35,9.972 73.874,7 				"/>
				<polygon fill="#666666" points="96.658,14.925 96.658,103.093 45.145,113 45.145,17.897 				"/>
				<polygon fill="#FFFFFF" points="45.145,17.897 45.145,113 23.35,94.178 23.35,9.972 				"/>
			</g>
			<g>
				<polygon fill="none" stroke="#000000" stroke-width="4" stroke-miterlimit="10" points="96.658,14.925 96.658,103.093 
					45.145,113 45.145,17.897 				"/>
				<line fill="none" stroke="#000000" stroke-width="4" stroke-miterlimit="10" x1="45.145" y1="17.897" x2="23.35" y2="9.972"/>
				<line fill="none" stroke="#000000" stroke-width="4" stroke-miterlimit="10" x1="23.35" y1="9.972" x2="73.874" y2="7"/>
				<polyline fill="none" stroke="#000000" stroke-width="4" stroke-miterlimit="10" points="73.874,7 96.758,14.628 97.649,14.925 
									"/>
				<line fill="none" stroke="#000000" stroke-width="4" stroke-miterlimit="10" x1="23.35" y1="9.972" x2="23.35" y2="94.178"/>
				<line fill="none" stroke="#000000" stroke-width="4" stroke-miterlimit="10" x1="23.35" y1="94.178" x2="45.145" y2="113"/>
			</g>
		</g>
	</g>
</g>
<g id="udu" display="none">
	<g display="inline">
		<g id="XMLID_2_">
			<g>
				<path fill="#FFFFFF" d="M21.385,57.734c1.672-1.334,4.113-5.819,6.096-11.428c2.493-7.048,3.926-13.245,2.431-13.781
					l-0.104-0.095C38.366,22.242,51.525,15.72,66.263,15.72C92.072,15.72,113,35.708,113,60.36S92.072,105,66.263,105
					c-25.809,0-46.737-19.988-46.737-44.64c0-0.882,0.031-1.754,0.083-2.626H21.385z M86.869,34.174
					c1.018-3.624-3.044-7.972-9.078-9.695c-6.023-1.733-11.726-0.189-12.754,3.435c-1.007,3.634,3.054,7.973,9.078,9.706
					C80.139,39.342,85.851,37.798,86.869,34.174z"/>
				<path d="M77.791,24.479c6.034,1.723,10.096,6.071,9.078,9.695c-1.019,3.624-6.73,5.168-12.754,3.445
					c-6.024-1.733-10.085-6.071-9.078-9.706C66.065,24.291,71.768,22.747,77.791,24.479z"/>
				<path fill="#FFFFFF" d="M29.912,32.525c1.496,0.536,0.062,6.733-2.431,13.781c-1.983,5.609-4.424,10.094-6.096,11.428h-1.776
					c0.582-9.558,4.3-18.297,10.199-25.303L29.912,32.525z"/>
				<path fill="#FFFFFF" d="M20.751,24.291l9.057,8.14c-5.899,7.006-9.617,15.745-10.199,25.303H8.818
					c2.129-0.693,5.837-7.1,8.755-15.388c2.971-8.435,4.113-15.881,2.794-17.615L20.751,24.291z"/>
				<path d="M20.367,24.731c1.319,1.733,0.177,9.18-2.794,17.615c-2.918,8.288-6.626,14.695-8.755,15.388H8.143
					c-1.921-0.756-0.862-8.76,2.378-17.93c3.25-9.211,7.467-16.112,9.42-15.409C20.107,24.458,20.253,24.563,20.367,24.731z"/>
			</g>
			<g>
				<path fill="none" stroke="#000000" stroke-width="4" stroke-miterlimit="10" d="M29.808,32.431
					C38.366,22.242,51.525,15.72,66.263,15.72C92.072,15.72,113,35.708,113,60.36S92.072,105,66.263,105
					c-25.809,0-46.737-19.988-46.737-44.64c0-0.882,0.031-1.754,0.083-2.626"/>
				<path fill="none" stroke="#000000" stroke-width="4" stroke-miterlimit="10" d="M20.367,24.731
					c1.319,1.733,0.177,9.18-2.794,17.615c-2.918,8.288-6.626,14.695-8.755,15.388c-0.239,0.074-0.457,0.084-0.654,0.011
					c-0.01,0-0.01-0.011-0.021-0.011c-1.921-0.756-0.862-8.76,2.378-17.93c3.25-9.211,7.467-16.112,9.42-15.409
					C20.107,24.458,20.253,24.563,20.367,24.731z"/>
				<path fill="none" stroke="#000000" stroke-width="4" stroke-miterlimit="10" d="M29.912,32.525
					c1.496,0.536,0.062,6.733-2.431,13.781c-1.983,5.609-4.424,10.094-6.096,11.428c-0.426,0.336-0.81,0.462-1.111,0.357"/>
				<polyline fill="none" stroke="#000000" stroke-width="4" stroke-miterlimit="10" points="20.564,24.123 20.751,24.291 
					29.808,32.431 29.912,32.525 				"/>
				<polyline fill="none" stroke="#000000" stroke-width="4" stroke-miterlimit="10" points="7,57.734 8.143,57.734 8.818,57.734 
					19.609,57.734 21.385,57.734 21.603,57.734 				"/>
				<path fill="none" stroke="#000000" stroke-width="4" stroke-miterlimit="10" d="M86.869,34.174
					c-1.019,3.624-6.73,5.168-12.754,3.445c-6.024-1.733-10.085-6.071-9.078-9.706c1.028-3.624,6.73-5.167,12.754-3.435
					C83.825,26.202,87.887,30.551,86.869,34.174z"/>
			</g>
		</g>
	</g>
</g>
<g id="Calque_6" display="none">
	<g display="inline" opacity="0.5">
		<path fill="#FFFFFF" d="M7.827,113.827c0-35.286,0-70.572,0-105.857c35.286,0,70.571,0,105.857,0c0,35.286,0,70.571,0,105.857
			C78.398,113.827,43.113,113.827,7.827,113.827z M54.256,19.197c-8.927-1.545-12.519,1.509-12.534,10.665
			c-0.003,1.792-0.001,3.583-0.001,5.374c0,9.57,0,19.139,0,29.703c-1.579-1.954-2.49-3.097-3.418-4.225
			c-3.765-4.58-8.687-5.777-12.678-3.091c-3.896,2.622-4.83,7.301-2.039,12.493c3.972,7.39,8.158,14.668,12.374,21.924
			c8.703,14.979,20.487,19.688,39.502,16.67c8.088-1.283,14.44-5.916,17.527-13.57c2.014-4.995,3.419-10.546,3.619-15.903
			c0.502-13.484,0.349-27.004,0.034-40.501c-0.075-3.229-0.941-7.265-3.021-9.382c-1.963-1.999-6.001-1.959-9.617-2.951
			c0.109,0.521-0.011,0.129-0.052-0.272c-0.818-7.864-3.608-10.097-11.303-9.163c-0.814,0.099-1.939-0.044-2.501-0.545
			C63.031,10.085,58.317,10.879,54.256,19.197z"/>
		<path fill-rule="evenodd" clip-rule="evenodd" d="M54.256,19.197c4.061-8.317,8.775-9.112,15.894-2.776
			c0.562,0.501,1.687,0.644,2.501,0.545c7.694-0.934,10.484,1.299,11.303,9.163c0.041,0.401,0.161,0.793,0.052,0.272
			c3.616,0.992,7.654,0.953,9.617,2.951c2.079,2.117,2.945,6.153,3.021,9.382c0.314,13.497,0.468,27.017-0.034,40.501
			c-0.2,5.357-1.605,10.908-3.619,15.903c-3.087,7.654-9.439,12.287-17.527,13.57c-19.016,3.019-30.799-1.691-39.502-16.67
			c-4.216-7.256-8.402-14.534-12.374-21.924c-2.791-5.191-1.857-9.871,2.039-12.493c3.992-2.686,8.913-1.489,12.678,3.091
			c0.929,1.128,1.839,2.271,3.418,4.225c0-10.564,0-20.133,0-29.703c0-1.791-0.002-3.583,0.001-5.374
			C41.737,20.706,45.329,17.651,54.256,19.197z M92.458,59.915c-0.031,0-0.062,0-0.093,0c0-7.85,0.043-15.701-0.023-23.55
			c-0.022-2.696-0.856-5.046-4.149-5.04c-3.08,0.005-3.74,2.372-4.077,4.784c-0.189,1.354-0.117,2.749-0.122,4.125
			c-0.014,5.096,0.103,10.197-0.108,15.285c-0.042,1.021-1.298,1.991-1.995,2.985c-0.697-1.011-1.631-1.939-2.021-3.057
			c-0.343-0.983-0.077-2.179-0.08-3.281c-0.018-8.677,0.018-17.355-0.083-26.031c-0.031-2.784-0.742-5.393-4.337-5.273
			c-3.578,0.119-3.985,2.641-3.971,5.517c0.047,8.677,0.102,17.356-0.074,26.03c-0.028,1.359-1.24,2.694-1.904,4.041
			c-0.744-1.369-2.107-2.725-2.135-4.108c-0.19-9.5-0.087-19.005-0.117-28.509c-0.004-1.365,0.208-3.002-0.444-4.027
			c-0.849-1.333-2.548-3.11-3.722-2.999c-1.456,0.138-3.13,1.781-3.991,3.208c-0.692,1.148-0.394,2.941-0.399,4.448
			c-0.028,9.503,0.051,19.009-0.112,28.51c-0.021,1.167-1.271,2.312-1.951,3.468c-0.738-1.14-2.017-2.237-2.112-3.428
			c-0.286-3.559-0.104-7.154-0.111-10.735c-0.01-4.958,0.001-9.917-0.05-14.875c-0.03-2.77-1.519-4.903-4.221-4.298
			c-1.601,0.358-2.948,2.591-4.022,4.234c-0.508,0.777-0.117,2.148-0.117,3.25c-0.002,12.396,0.064,24.793-0.073,37.188
			c-0.02,1.835-0.999,3.659-1.534,5.488c-1.518-1.213-3.222-2.257-4.512-3.676c-1.846-2.03-3.357-4.361-5.071-6.516
			c-1.821-2.288-4.204-3.519-6.826-1.734c-2.535,1.725-1.989,4.326-0.666,6.651c4.689,8.249,9.25,16.579,14.226,24.653
			c3.724,6.043,8.94,10.787,16.239,11.684c5.668,0.696,11.559,0.84,17.207,0.112c6.643-0.855,11.87-4.92,14.341-11.178
			c1.776-4.501,2.694-9.498,3.089-14.347C92.845,72.618,92.458,66.25,92.458,59.915z"/>
	</g>
</g>
<g id="claras" display="none">
	<g display="inline">
		<g id="XMLID_3_">
			<g>
				<path fill="#FFFFFF" d="M89.746,22.558c0,0,5.214-1.304,7.821,1.303c2.606,2.607,0,7.821,0,7.821l-5.214,5.213l-0.652,0.652
					c0,0,2.934-1.629,5.866,1.304c2.848,2.848-0.652,7.82-0.652,7.82s-8.472,8.472-27.372,27.373
					c-18.899,18.899-31.934,9.775-37.148,4.562c-16.292-16.293-9.482-31.641-8.472-34.541c1.01-2.9,3.91-13.034,4.562-16.293
					c0.652-3.258,3.91-7.82,8.473-7.169c4.562,0.652,4.562,5.866,4.562,5.866v11.731L70.195,9.523c0,0,5.213-5.214,9.775-0.652
					c2.606,2.607,0,6.518,0,6.518l3.91-3.911c0,0,5.214-2.607,8.473,0.652s0,7.821,0,7.821L89.746,22.558z"/>
			</g>
			<g>
				<path fill="none" stroke="#000000" stroke-width="4" stroke-miterlimit="10" d="M92.354,36.896l5.214-5.213
					c0,0,2.606-5.214,0-7.821c-2.607-2.607-7.821-1.303-7.821-1.303l2.607-2.607c0,0,3.259-4.562,0-7.821s-8.473-0.652-8.473-0.652
					l-3.91,3.911c0,0,2.606-3.911,0-6.518c-4.562-4.562-9.775,0.652-9.775,0.652L41.52,38.199V26.468c0,0,0-5.214-4.562-5.866
					c-4.562-0.651-7.821,3.911-8.473,7.169c-0.652,3.259-3.552,13.393-4.562,16.293c-1.01,2.9-7.82,18.248,8.472,34.541
					c5.214,5.214,18.249,14.338,37.148-4.562c18.9-18.9,27.372-27.373,27.372-27.373s3.5-4.973,0.652-7.82
					c-2.933-2.933-5.866-1.304-5.866-1.304"/>
				<line fill="none" stroke="#000000" stroke-width="4" stroke-miterlimit="10" x1="79.971" y1="15.389" x2="59.116" y2="36.244"/>
				<line fill="none" stroke="#000000" stroke-width="4" stroke-miterlimit="10" x1="89.746" y1="22.558" x2="67.588" y2="44.716"/>
				<polyline fill="none" stroke="#000000" stroke-width="4" stroke-miterlimit="10" points="92.354,36.896 91.701,37.547 
					74.105,55.144 				"/>
			</g>
		</g>
	</g>
	<g display="inline">
		<g id="XMLID_4_">
			<g>
				<path fill="#FFFFFF" d="M85.946,46.889c0,0,1.739-2.869,5.74-1.776c3.885,1.062,3.312,7.115,3.312,7.115
					s-3.157,11.559-10.2,37.342c-7.044,25.784-22.887,24.322-30,22.38c-22.228-6.071-23.922-22.777-24.483-25.797
					S27.249,72.895,26.2,69.741c-1.05-3.153-0.482-8.73,3.803-10.426s6.87,2.833,6.87,2.833l5.816,10.188l10.686-39.121
					c0,0,1.943-7.113,8.167-5.413c3.556,0.972,3.23,5.66,3.23,5.66l1.457-5.334c0,0,3.235-4.849,7.682-3.634
					c4.445,1.214,3.877,6.792,3.877,6.792l-0.972,3.557c0,0,3.882-3.717,7.438-2.746c3.557,0.972,3.877,6.792,3.877,6.792L86.189,46
					L85.946,46.889z"/>
			</g>
			<g>
				<path fill="none" stroke="#000000" stroke-width="4" stroke-miterlimit="10" d="M86.189,46l1.942-7.113
					c0,0-0.32-5.82-3.877-6.792c-3.557-0.971-7.438,2.746-7.438,2.746l0.972-3.557c0,0,0.568-5.577-3.877-6.792
					c-4.446-1.214-7.682,3.634-7.682,3.634l-1.457,5.334c0,0,0.325-4.688-3.23-5.66c-6.224-1.7-8.167,5.413-8.167,5.413
					L42.689,72.335l-5.816-10.188c0,0-2.585-4.528-6.87-2.833S25.15,66.588,26.2,69.741c1.049,3.153,3.555,13.392,4.116,16.411
					s2.255,19.726,24.483,25.797c7.113,1.942,22.956,3.404,30-22.38c7.043-25.783,10.2-37.342,10.2-37.342s0.573-6.053-3.312-7.115
					c-4.001-1.093-5.74,1.776-5.74,1.776"/>
				<line fill="none" stroke="#000000" stroke-width="4" stroke-miterlimit="10" x1="64.772" y1="33.461" x2="57.001" y2="61.913"/>
				<line fill="none" stroke="#000000" stroke-width="4" stroke-miterlimit="10" x1="76.816" y1="34.841" x2="68.56" y2="65.07"/>
				<polyline fill="none" stroke="#000000" stroke-width="4" stroke-miterlimit="10" points="86.189,46 85.946,46.889 
					79.389,70.895 				"/>
			</g>
		</g>
	</g>
</g>
<g id="sordas" display="none">
	<g display="inline">
		<g id="XMLID_6_">
			<g>
				<path d="M91.701,37.547c0,0,2.934-1.629,5.866,1.304c2.848,2.848-0.652,7.82-0.652,7.82s-8.472,8.472-27.372,27.373
					c-18.899,18.899-31.934,9.775-37.148,4.562c-16.292-16.293-9.482-31.641-8.472-34.541c1.01-2.9,3.91-13.034,4.562-16.293
					c0.652-3.258,3.91-7.82,8.473-7.169c4.562,0.652,4.562,5.866,4.562,5.866v11.731L70.195,9.523c0,0,5.213-5.214,9.775-0.652
					c2.606,2.607,0,6.518,0,6.518l3.91-3.911c0,0,5.214-2.607,8.473,0.652s0,7.821,0,7.821l-2.607,2.607
					c0,0,5.214-1.304,7.821,1.303c2.606,2.607,0,7.821,0,7.821l-5.214,5.213L91.701,37.547z"/>
			</g>
			<g>
				<path fill="none" stroke="#FFFFFF" stroke-width="4" stroke-miterlimit="10" d="M92.354,36.896l5.214-5.213
					c0,0,2.606-5.214,0-7.821c-2.607-2.607-7.821-1.303-7.821-1.303l2.607-2.607c0,0,3.259-4.562,0-7.821s-8.473-0.652-8.473-0.652
					l-3.91,3.911c0,0,2.606-3.911,0-6.518c-4.562-4.562-9.775,0.652-9.775,0.652L41.52,38.199V26.468c0,0,0-5.214-4.562-5.866
					c-4.562-0.651-7.821,3.911-8.473,7.169c-0.652,3.259-3.552,13.393-4.562,16.293c-1.01,2.9-7.82,18.248,8.472,34.541
					c5.214,5.214,18.249,14.338,37.148-4.562c18.9-18.9,27.372-27.373,27.372-27.373s3.5-4.973,0.652-7.82
					c-2.933-2.933-5.866-1.304-5.866-1.304"/>
				<line fill="none" stroke="#FFFFFF" stroke-width="4" stroke-miterlimit="10" x1="79.971" y1="15.389" x2="59.116" y2="36.244"/>
				<line fill="none" stroke="#FFFFFF" stroke-width="4" stroke-miterlimit="10" x1="89.746" y1="22.558" x2="67.588" y2="44.716"/>
				<polyline fill="none" stroke="#FFFFFF" stroke-width="4" stroke-miterlimit="10" points="92.354,36.896 91.701,37.547 
					74.105,55.144 				"/>
			</g>
		</g>
	</g>
	<g display="inline">
		<g id="XMLID_5_">
			<g>
				<path d="M85.946,46.889c0,0,1.739-2.869,5.74-1.776c3.885,1.062,3.312,7.115,3.312,7.115s-3.157,11.559-10.2,37.342
					c-7.044,25.784-22.887,24.322-30,22.38c-22.228-6.071-23.922-22.777-24.483-25.797S27.249,72.895,26.2,69.741
					c-1.05-3.153-0.482-8.73,3.803-10.426s6.87,2.833,6.87,2.833l5.816,10.188l10.686-39.121c0,0,1.943-7.113,8.167-5.413
					c3.556,0.972,3.23,5.66,3.23,5.66l1.457-5.334c0,0,3.235-4.849,7.682-3.634c4.445,1.214,3.877,6.792,3.877,6.792l-0.972,3.557
					c0,0,3.882-3.717,7.438-2.746c3.557,0.972,3.877,6.792,3.877,6.792L86.189,46L85.946,46.889z"/>
			</g>
			<g>
				<path fill="none" stroke="#FFFFFF" stroke-width="4" stroke-miterlimit="10" d="M86.189,46l1.942-7.113
					c0,0-0.32-5.82-3.877-6.792c-3.557-0.971-7.438,2.746-7.438,2.746l0.972-3.557c0,0,0.568-5.577-3.877-6.792
					c-4.446-1.214-7.682,3.634-7.682,3.634l-1.457,5.334c0,0,0.325-4.688-3.23-5.66c-6.224-1.7-8.167,5.413-8.167,5.413
					L42.689,72.335l-5.816-10.188c0,0-2.585-4.528-6.87-2.833S25.15,66.588,26.2,69.741c1.049,3.153,3.555,13.392,4.116,16.411
					s2.255,19.726,24.483,25.797c7.113,1.942,22.956,3.404,30-22.38c7.043-25.783,10.2-37.342,10.2-37.342s0.573-6.053-3.312-7.115
					c-4.001-1.093-5.74,1.776-5.74,1.776"/>
				<line fill="none" stroke="#FFFFFF" stroke-width="4" stroke-miterlimit="10" x1="64.772" y1="33.461" x2="57.001" y2="61.913"/>
				<line fill="none" stroke="#FFFFFF" stroke-width="4" stroke-miterlimit="10" x1="76.816" y1="34.841" x2="68.56" y2="65.07"/>
				<polyline fill="none" stroke="#FFFFFF" stroke-width="4" stroke-miterlimit="10" points="86.189,46 85.946,46.889 
					79.389,70.895 				"/>
			</g>
		</g>
	</g>
</g>
<g id="Calque_10" display="none">
	
		<image display="inline" overflow="visible" opacity="0.5" width="377" height="470" xlink:href="../stock-vector-party-icons-75875629.jpg"  transform="matrix(1.0549 0 0 1.0549 -197.71 -346)">
	</image>
</g>
<g id="Calque_11" display="none">
	<path display="inline" d="M31,52c0,0,0,12,8,15s15,3,15,3s-0.872,0.249-2,0.659c-2.069,0.752-5,2.047-5,3.341c0,2,0,4,5,4s4-3,4-3
		s-9-2-9,4s6,6,6,6s7-2,5-4s-9,1-9,4s0.696,7,5,6s0-1,0-1s-5-2-4-4s3-3,4-3s-5,1-5-1s0-6,3-6s-3,2-3-1s-8-4-13-6S31,52,31,52z"/>
	<polygon display="inline" points="64,51 58.068,49.484 53.457,53.512 53.065,47.402 47.81,44.26 53.5,42 54.864,36.031 
		58.771,40.744 64.869,40.197 61.595,45.37 	"/>
	<polygon display="inline" points="76,57 74.522,55.507 72.456,55.878 73.419,54.012 72.428,52.161 74.5,52.5 75.954,50.985 
		76.272,53.061 78.162,53.976 76.286,54.919 	"/>
	<polygon display="inline" points="76,97 72.141,96.683 69.692,99.683 68.801,95.914 65.191,94.512 68.5,92.5 68.719,88.634 
		71.654,91.159 75.398,90.172 73.904,93.744 	"/>
	<polygon display="inline" points="39,90 37.229,87.912 34.505,88.188 35.943,85.857 34.84,83.352 37.5,84 39.542,82.176 
		39.748,84.906 42.113,86.285 39.58,87.324 	"/>
	<polygon display="inline" points="83,39 81.222,38.397 79.716,39.52 79.74,37.642 78.206,36.558 80,36 80.558,34.207 81.642,35.74 
		83.521,35.716 82.396,37.221 	"/>
	<circle display="inline" cx="46.5" cy="57.5" r="3.5"/>
	<circle display="inline" cx="68" cy="74" r="3"/>
	<circle display="inline" cx="88.5" cy="87.5" r="1.5"/>
	<circle display="inline" cx="70" cy="29" r="2"/>
	<circle display="inline" cx="33.638" cy="75.361" r="1.638"/>
	<circle display="inline" cx="56.5" cy="102.5" r="3.5"/>
</g>
<g id="jaleos" display="none">
	<path display="inline" fill-rule="evenodd" clip-rule="evenodd" stroke="#000000" stroke-miterlimit="10" d="M19.612,57.598
		c0.358-2.227,0.723-4.451,1.075-6.679c0.178-1.13,0.333-2.265,0.519-3.533c12.437,3.083,24.796,6.146,37.155,9.209
		c0,0.068,0,0.138,0,0.207c-0.333,0.033-0.665,0.086-0.998,0.1c-11.938,0.462-23.877,0.921-35.816,1.387
		c-0.646,0.025-1.29,0.113-1.935,0.17C19.612,58.174,19.612,57.885,19.612,57.598z"/>
	<path display="inline" fill-rule="evenodd" clip-rule="evenodd" stroke="#000000" stroke-miterlimit="10" d="M66.77,13.018
		c-0.246,2.355-0.454,4.714-0.746,7.063c-1.033,8.312-2.094,16.621-3.146,24.932c-0.215,1.705-0.437,3.41-0.837,5.12
		c-2.068-11.79-4.136-23.581-6.227-35.498c2.354-0.336,4.592-0.641,6.825-0.978c1.236-0.186,2.464-0.424,3.697-0.64
		C66.48,13.018,66.626,13.018,66.77,13.018z"/>
	<path display="inline" fill-rule="evenodd" clip-rule="evenodd" stroke="#000000" stroke-miterlimit="10" d="M97.592,28.64
		c2.143,3.187,4.207,6.255,6.339,9.427c-12.399,5.796-24.739,11.564-37.079,17.333c-0.043-0.059-0.086-0.12-0.13-0.179
		C76.977,46.391,87.23,37.562,97.592,28.64z"/>
	<path display="inline" fill-rule="evenodd" clip-rule="evenodd" stroke="#000000" stroke-miterlimit="10" d="M59.921,61.029
		c-4.127,11.766-8.254,23.531-12.413,35.388c-3.707-1.049-7.324-2.072-11.094-3.138c7.827-10.867,15.565-21.609,23.304-32.354
		C59.786,60.96,59.853,60.995,59.921,61.029z"/>
	<path display="inline" fill-rule="evenodd" clip-rule="evenodd" stroke="#000000" stroke-miterlimit="10" d="M84.322,98.024
		c-6.266-12.427-12.456-24.702-18.646-36.979c0.053-0.041,0.105-0.08,0.159-0.12C74.62,71.172,83.403,81.42,92.244,91.73
		C89.616,93.818,87.03,95.872,84.322,98.024z"/>
	<path display="inline" fill-rule="evenodd" clip-rule="evenodd" stroke="#000000" stroke-miterlimit="10" d="M70.304,42.263
		c2.544-6.558,5.087-13.114,7.689-19.825c2.124,1.052,4.192,2.076,6.34,3.14c-4.668,5.657-9.271,11.235-13.873,16.812
		C70.408,42.348,70.356,42.306,70.304,42.263z"/>
	<path display="inline" fill-rule="evenodd" clip-rule="evenodd" stroke="#000000" stroke-miterlimit="10" d="M39.549,42.495
		c1.09-2.154,2.106-4.163,3.147-6.22c5.127,5.177,10.165,10.264,15.131,15.278C51.869,48.6,45.766,45.576,39.549,42.495z"/>
	<path display="inline" fill-rule="evenodd" clip-rule="evenodd" stroke="#000000" stroke-miterlimit="10" d="M92.803,64.839
		c-6.715-1.537-13.264-3.036-19.811-4.538c0.006-0.069,0.013-0.14,0.018-0.211c6.571-0.502,13.144-1.005,19.793-1.512
		C92.803,60.684,92.803,62.712,92.803,64.839z"/>
	<path display="inline" fill-rule="evenodd" clip-rule="evenodd" stroke="#000000" stroke-miterlimit="10" d="M33.628,71.137
		c6.175-3.06,12.279-6.082,18.383-9.104c0.035,0.055,0.07,0.108,0.105,0.163c-5.09,4.539-10.18,9.078-15.315,13.659
		C35.716,74.241,34.696,72.724,33.628,71.137z"/>
	<path display="inline" fill-rule="evenodd" clip-rule="evenodd" stroke="#000000" stroke-miterlimit="10" d="M62.289,65.887
		c1.003,7.453,2.006,14.909,3.021,22.457c-1.612,0-3.104,0-4.734,0c0.501-7.497,1-14.946,1.498-22.394
		C62.146,65.928,62.218,65.907,62.289,65.887z"/>
	<polygon display="inline" fill-rule="evenodd" clip-rule="evenodd" stroke="#000000" stroke-miterlimit="10" points="
		30.143,24.474 23.637,22.275 18.131,26.37 18.218,19.524 12.609,15.57 19.169,13.538 21.209,7 25.176,12.59 32.045,12.503 
		27.937,17.99 	"/>
	<polygon display="inline" fill-rule="evenodd" clip-rule="evenodd" stroke="#000000" stroke-miterlimit="10" points="
		100.165,18.225 97.069,16.663 94.022,18.318 94.558,14.901 92.036,12.525 95.462,11.976 96.95,8.852 98.533,11.93 101.975,12.375 
		99.525,14.826 	"/>
	<polygon display="inline" fill-rule="evenodd" clip-rule="evenodd" stroke="#000000" stroke-miterlimit="10" points="
		108.525,85.922 102.027,82.177 95.247,85.389 96.813,78.071 91.653,72.638 99.12,71.861 102.71,65.293 105.759,72.128 
		113.139,73.503 107.556,78.503 	"/>
	<polygon display="inline" fill-rule="evenodd" clip-rule="evenodd" stroke="#000000" stroke-miterlimit="10" points="
		14.467,72.382 11.379,69.273 7.059,70.045 9.072,66.159 7,62.303 11.332,63.008 14.371,59.854 15.035,64.178 18.986,66.084 
		15.065,68.049 	"/>
	
		<ellipse display="inline" fill-rule="evenodd" clip-rule="evenodd" stroke="#000000" stroke-miterlimit="10" cx="16.703" cy="38.313" rx="4.703" ry="4.687"/>
	
		<ellipse display="inline" fill-rule="evenodd" clip-rule="evenodd" stroke="#000000" stroke-miterlimit="10" cx="102.255" cy="51.553" rx="3.135" ry="3.125"/>
	
		<ellipse display="inline" fill-rule="evenodd" clip-rule="evenodd" stroke="#000000" stroke-miterlimit="10" cx="74.56" cy="98.94" rx="2.613" ry="2.603"/>
	
		<ellipse display="inline" fill-rule="evenodd" clip-rule="evenodd" stroke="#000000" stroke-miterlimit="10" cx="59.929" cy="107.272" rx="5.748" ry="5.728"/>
	
		<ellipse display="inline" fill-rule="evenodd" clip-rule="evenodd" stroke="#000000" stroke-miterlimit="10" cx="27.531" cy="86.442" rx="4.703" ry="4.687"/>
	
		<ellipse display="inline" fill-rule="evenodd" clip-rule="evenodd" stroke="#000000" stroke-miterlimit="10" cx="46.865" cy="24.474" rx="2.09" ry="2.083"/>
	<polygon display="inline" fill-rule="evenodd" clip-rule="evenodd" stroke="#000000" stroke-miterlimit="10" points="
		28.053,104.534 21.215,106.354 18.844,113 14.993,107.082 7.918,106.888 12.376,101.409 10.375,94.645 16.981,97.177 
		22.819,93.188 22.444,100.234 	"/>
	
		<circle display="inline" fill-rule="evenodd" clip-rule="evenodd" stroke="#000000" stroke-miterlimit="10" cx="77.5" cy="11.5" r="3.5"/>
	
		<circle display="inline" fill-rule="evenodd" clip-rule="evenodd" stroke="#000000" stroke-miterlimit="10" cx="106" cy="103" r="7"/>
</g>
<g id="click">
	<g id="Calque_1_1_" display="none">
		<path display="inline" fill="#FFFFFF" d="M-36.015,110.487c0-56.426,0-112.853,0-169.279c56.426,0,112.853,0,169.279,0
			c0,56.426,0,112.853,0,169.279C76.838,110.487,20.413,110.487-36.015,110.487z M-16.575,89.523
			c-0.522-0.094-0.865-0.127-1.19-0.22c-5.334-1.519-10.976,0.642-13.972,5.358c-2.75,4.332-0.487,8.789,4.639,8.92
			c4.798,0.125,12.339-3.957,12.141-11.297c-0.337-12.416-0.092-24.848-0.092-37.273c0-5.397-0.015-5.466,5.196-6.624
			c9.162-2.037,18.343-3.979,27.669-5.995c0,13.311,0,26.416,0,39.612c-0.402-0.074-0.738-0.105-1.057-0.197
			C11.375,80.28,5.458,82.65,2.644,87.467c-2.266,3.879-0.769,7.361,3.619,8.451c4.825,1.195,13.464-3.809,13.367-10.359
			c-0.247-16.739-0.081-33.485-0.091-50.229c0-0.671-0.105-1.341-0.178-2.198c-12.068,2.582-23.947,5.124-35.936,7.69
			C-16.575,57.186-16.575,73.293-16.575,89.523z M5.981,14.125c0.087,0.086,0.174,0.171,0.261,0.257
			c0.746-2.258,2.078-4.503,2.123-6.775C8.486,1.602,8.022-4.415,7.851-10.427c-0.049-1.713,0.011-3.441,0.181-5.147
			c0.399-4.005-0.313-7.811-2.655-11.04c-2.261-3.118-4.823-6.05-7.51-8.812c-2.223-2.287-3.988-4.646-4.269-7.924
			c-0.041-0.472-0.55-0.903-0.841-1.353c-0.23,0.083-0.461,0.166-0.69,0.25c0,18.693,0,37.387,0,56.16
			c-6.507-1.806-11.987-0.152-15.124,4.392c-2.479,3.592-1.229,7.668,2.829,9.226c6.045,2.321,13.744-3.098,13.787-9.771
			C-6.391,7.36-6.43-0.836-6.417-9.029c0.001-0.729,0.101-1.457,0.181-2.536C-2.73-9,0.507-6.74,3.62-4.32
			c2.473,1.923,4.137,4.533,3.921,7.713C7.296,6.989,6.523,10.55,5.981,14.125z M74.709,28.34c-0.258,0.083-0.517,0.164-0.773,0.245
			c0,18.062,0,36.125,0,54.295c-6.745-2.178-12.474-0.692-16.624,4.072c-2.003,2.299-2.972,4.888-1.606,7.766
			c1.316,2.77,3.747,4.098,6.814,4.203c7.274,0.247,13.045-5.242,13.073-12.56c0.046-11.989,0.012-23.978,0.012-35.966
			c0-0.914,0-1.825,0-3.058c6.601,1.724,10.754,5.544,13.179,11.325c2.621,6.246,1.171,12.247-1.252,18.161
			c-0.597,1.459-1.226,2.904-1.84,4.354c0.29,0.129,0.578,0.256,0.868,0.386c1.249-2.732,2.706-5.387,3.705-8.207
			c2.36-6.669,3.225-13.426-0.851-19.78c-1.986-3.096-4.282-6.045-6.769-8.755c-3.934-4.29-6.694-9.002-7.042-14.94
			C75.573,29.353,75.019,28.854,74.709,28.34z M42.832,20.771c0.721-0.094,1.165-0.102,1.582-0.213
			c1.874-0.504,3.052-1.806,2.594-3.662c-0.333-1.349-1.251-2.979-2.389-3.604c-1.661-0.911-3.775-0.258-4.405,1.627
			c-0.529,1.585-0.603,3.685,0,5.208c1.237,3.125,4.668,4.399,8.209,3.615c2.793-0.62,4.968-3.143,5.036-6.333
			c0.052-2.445-0.212-4.915-0.551-7.344c-0.288-2.057-0.088-3.413,1.999-4.704c4.021-2.485,5.26-6.522,4.284-11.053
			c-0.867-4.023-3.489-6.381-7.661-6.891c-0.498-0.061-1.112-0.16-1.437-0.479c-0.909-0.896-0.668-6.646,0.255-7.627
			c5.632-5.977,7.807-12.853,5.189-20.836c-0.561-1.712-1.75-3.219-2.649-4.821c-1.423,1.445-3.302,2.658-4.179,4.382
			c-2.155,4.242-2.732,8.872-1.907,13.607c0.348,1.996,0.105,3.494-1.575,5.122c-2.942,2.851-5.879,5.932-7.924,9.438
			c-4.435,7.605-0.466,18.166,7.512,20.73c2.01,0.646,4.252,0.573,6.751,0.875c0.237,3.098,0.674,6.325,0.67,9.553
			c-0.004,2.514-1.59,4.312-3.979,5.045C46.393,22.98,44.434,23.079,42.832,20.771z M109.247-41.316
			c-0.354,0.076-0.708,0.153-1.061,0.229c0,17.769,0,35.539,0,53.401c-7.002-1.92-14.394,0.789-17.697,6.248
			c-2.871,4.744-0.088,9.983,5.442,10.578c6.754,0.726,14.57-6.435,14.276-12.927c-0.354-7.829-0.081-15.687-0.08-23.532
			c0-10.402,0.021-20.804-0.039-31.205C110.083-39.455,109.54-40.384,109.247-41.316z"/>
		<path display="inline" d="M-16.575,89.523c0-16.23,0-32.337,0-48.702c11.988-2.566,23.869-5.108,35.936-7.69
			c0.072,0.857,0.178,1.527,0.178,2.198c0.01,16.744-0.156,33.489,0.091,50.229c0.097,6.551-8.542,11.555-13.367,10.359
			c-4.388-1.09-5.885-4.572-3.619-8.451c2.813-4.816,8.73-7.187,14.116-5.659c0.32,0.092,0.655,0.123,1.057,0.197
			c0-13.197,0-26.301,0-39.612c-9.328,2.016-18.509,3.958-27.669,5.995c-5.211,1.158-5.196,1.227-5.196,6.624
			c0,12.425-0.246,24.857,0.092,37.273c0.2,7.34-7.342,11.422-12.141,11.297c-5.126-0.132-7.39-4.589-4.639-8.92
			c2.995-4.717,8.638-6.877,13.972-5.358C-17.44,89.396-17.097,89.43-16.575,89.523z M-14.666,45.896
			c3.264-0.701,6.5-1.4,9.736-2.091c6.948-1.485,13.901-2.95,20.843-4.468c1.098-0.239,2.689-0.293,1.667-2.361
			c-2.474,0.532-4.944,1.064-7.416,1.591c-7.716,1.65-15.438,3.282-23.146,4.966C-14.055,43.77-15.662,43.828-14.666,45.896z"/>
		<path display="inline" d="M5.981,14.125C6.523,10.55,7.296,6.989,7.541,3.393C7.756,0.214,6.094-2.396,3.62-4.32
			c-3.112-2.42-6.349-4.678-9.856-7.245c-0.08,1.079-0.18,1.808-0.181,2.536C-6.43-0.835-6.391,7.36-6.442,15.553
			c-0.042,6.673-7.742,12.092-13.787,9.771c-4.058-1.557-5.309-5.634-2.829-9.226c3.137-4.544,8.617-6.199,15.124-4.392
			c0-18.773,0-37.467,0-56.16c0.229-0.083,0.46-0.166,0.69-0.25c0.292,0.45,0.802,0.881,0.841,1.353
			c0.281,3.279,2.046,5.638,4.269,7.924c2.687,2.763,5.249,5.695,7.51,8.812c2.341,3.229,3.053,7.035,2.655,11.04
			c-0.17,1.705-0.229,3.434-0.181,5.147C8.022-4.415,8.486,1.601,8.366,7.607c-0.045,2.271-1.378,4.517-2.123,6.775
			C6.155,14.296,6.067,14.211,5.981,14.125z M6.366-4.628C7.973-10.084,1.344-18.75-6.415-22.034
			C-5.407-13.852,2.192-10.793,6.366-4.628z M6.709-15.174c1.339-5.577-5.771-14.761-13.313-17.341
			c0.836,2.235,1.65,4.579,3.142,6.355C-0.266-22.354,3.279-18.84,6.709-15.174z"/>
		<path display="inline" d="M74.709,28.34c0.31,0.513,0.864,1.012,0.895,1.542c0.348,5.938,3.108,10.649,7.042,14.939
			c2.486,2.712,4.782,5.661,6.769,8.756c4.075,6.353,3.211,13.11,0.851,19.781c-0.999,2.819-2.456,5.475-3.705,8.205
			c-0.29-0.128-0.578-0.255-0.868-0.385c0.614-1.451,1.243-2.896,1.84-4.354c2.423-5.914,3.873-11.916,1.252-18.162
			c-2.425-5.781-6.578-9.603-13.179-11.325c0,1.231,0,2.145,0,3.057c0,11.989,0.034,23.977-0.012,35.966
			c-0.028,7.317-5.799,12.807-13.073,12.56c-3.067-0.104-5.498-1.434-6.814-4.203c-1.368-2.878-0.396-5.466,1.606-7.766
			c4.15-4.765,9.878-6.251,16.624-4.073c0-18.171,0-36.232,0-54.293C74.192,28.504,74.451,28.423,74.709,28.34z"/>
		<path display="inline" d="M42.832,20.771c1.602,2.307,3.561,2.209,5.426,1.637c2.389-0.735,3.975-2.533,3.979-5.045
			c0.004-3.227-0.434-6.454-0.67-9.553c-2.497-0.302-4.74-0.228-6.751-0.875c-7.978-2.565-11.947-13.125-7.51-20.732
			c2.045-3.506,4.982-6.587,7.924-9.438c1.68-1.628,1.923-3.126,1.575-5.122c-0.825-4.736-0.248-9.366,1.907-13.607
			c0.875-1.723,2.756-2.936,4.179-4.382c0.9,1.602,2.088,3.109,2.649,4.821c2.618,7.982,0.442,14.859-5.188,20.837
			c-0.924,0.98-1.165,6.731-0.256,7.627c0.324,0.32,0.938,0.418,1.437,0.479c4.172,0.51,6.794,2.868,7.661,6.891
			c0.976,4.531-0.264,8.568-4.284,11.053c-2.089,1.292-2.287,2.647-1.999,4.704c0.338,2.429,0.603,4.899,0.551,7.344
			c-0.068,3.19-2.243,5.712-5.036,6.332c-3.541,0.784-6.972-0.49-8.209-3.615c-0.603-1.524-0.53-3.624,0-5.208
			c0.629-1.886,2.744-2.539,4.404-1.627c1.139,0.625,2.056,2.255,2.39,3.604c0.458,1.854-0.721,3.156-2.594,3.662
			C43.998,20.669,43.553,20.678,42.832,20.771z M47.933-18.533c-4.38,3.508-8.307,6.865-9.586,12.264
			c-0.938,3.954,0.301,7.32,3.302,9.972c2.719,2.403,5.867,3.2,9.509,2.169C50.57,1.29,50.007-3.096,49.445-7.481
			c-0.27-0.149-0.54-0.299-0.811-0.449c-1.139,1.299-2.59,2.439-3.35,3.932c-1.432,2.812,0.551,4.796,2.443,6.7
			c-3.166-1.023-4.572-3.349-4.872-6.277c-0.334-3.251,1.083-5.971,3.84-7.571c1.932-1.121,2.163-2.464,1.815-4.298
			C48.347-16.305,48.188-17.167,47.933-18.533z M48.345-26.227c3.477-2.834,6.177-5.745,6.712-9.967
			c0.158-1.25-0.748-2.634-1.167-3.957c-1.229,0.625-2.896,0.937-3.609,1.932C47.807-34.769,47.702-30.772,48.345-26.227z
			 M50.654-7.801c0.589,4.443,1.162,8.777,1.749,13.216c3.218-1.676,4.771-4.545,4.301-7.599
			C56.232-5.268,54.376-7.072,50.654-7.801z"/>
		<path display="inline" d="M109.247-41.316c0.293,0.931,0.836,1.86,0.842,2.793c0.062,10.401,0.039,20.803,0.039,31.205
			c-0.001,7.846-0.274,15.702,0.08,23.532c0.294,6.491-7.522,13.653-14.276,12.927c-5.53-0.594-8.313-5.834-5.442-10.578
			c3.304-5.458,10.695-8.168,17.697-6.247c0-17.864,0-35.633,0-53.401C108.539-41.162,108.894-41.24,109.247-41.316z"/>
		<path display="inline" fill="#FFFFFF" d="M-14.666,45.896c-0.996-2.068,0.611-2.125,1.685-2.361
			c7.708-1.686,15.429-3.316,23.146-4.965c2.471-0.528,4.941-1.061,7.416-1.592c1.022,2.067-0.569,2.123-1.667,2.362
			C8.97,40.855,2.017,42.321-4.931,43.806C-8.166,44.496-11.4,45.195-14.666,45.896z"/>
		<path display="inline" fill="#FFFFFF" d="M6.366-4.628C2.192-10.793-5.407-13.853-6.415-22.034
			C1.344-18.75,7.973-10.084,6.366-4.628z"/>
		<path display="inline" fill="#FFFFFF" d="M6.709-15.174c-3.431-3.666-6.975-7.18-10.171-10.986
			c-1.492-1.776-2.306-4.12-3.142-6.355C0.939-29.935,8.049-20.751,6.709-15.174z"/>
		<path display="inline" fill="#FFFFFF" d="M47.933-18.533c0.255,1.364,0.415,2.227,0.578,3.089
			c0.348,1.834,0.117,3.177-1.815,4.298c-2.757,1.6-4.174,4.32-3.84,7.571c0.301,2.928,1.707,5.254,4.872,6.278
			c-1.892-1.905-3.874-3.889-2.443-6.7c0.76-1.493,2.21-2.633,3.35-3.932c0.27,0.149,0.54,0.298,0.81,0.449
			c0.564,4.386,1.127,8.771,1.715,13.354c-3.645,1.03-6.791,0.233-9.51-2.169c-3.001-2.653-4.241-6.018-3.302-9.972
			C39.626-11.668,43.553-15.025,47.933-18.533z"/>
		<path display="inline" fill="#FFFFFF" d="M48.345-26.227c-0.645-4.545-0.538-8.543,1.936-11.992
			c0.713-0.996,2.38-1.308,3.609-1.932c0.419,1.322,1.326,2.707,1.167,3.957C54.522-31.971,51.824-29.062,48.345-26.227z"/>
		<path display="inline" fill="#FFFFFF" d="M50.654-7.801c3.722,0.729,5.578,2.533,6.05,5.618c0.469,3.053-1.083,5.923-4.301,7.599
			C51.816,0.976,51.243-3.357,50.654-7.801z"/>
	</g>
	<g id="Calque_2_1_">
	</g>
	<g id="Calque_4" display="none">
		<path display="inline" d="M89.181,93.457c-0.043,10.902-8.64,19.082-19.479,18.714c-4.572-0.154-8.196-2.136-10.154-6.263
			c-2.036-4.288-0.592-8.145,2.393-11.572c6.185-7.1,14.722-9.313,24.769-6.068c0-27.078,0-53.993,0-80.907
			c0.386-0.122,0.771-0.244,1.154-0.366c0.465,0.764,1.29,1.509,1.335,2.298"/>
	</g>
	<g id="Calque_8" display="none">
		<path display="inline" d="M74.218,7.582c0.459,0.757,1.276,1.494,1.322,2.275c0.513,8.766,4.587,15.721,10.395,22.053
			c3.669,4.002,7.06,8.355,9.989,12.926c6.018,9.376,4.742,19.352,1.255,29.197c-1.47,4.162-3.624,8.082-5.467,12.113
			c-0.428-0.188-0.853-0.379-1.281-0.567c0.907-2.144,1.835-4.275,2.718-6.428c3.573-8.73,5.714-17.588,1.847-26.809
			c-3.58-8.532-9.712-14.174-19.455-16.717c0,1.819,0,3.167,0,4.514c0,17.697,0.051,35.393-0.018,53.09
			c-0.042,10.803-8.561,18.904-19.296,18.54c-4.529-0.154-8.117-2.116-10.059-6.203c-2.019-4.249-0.586-8.07,2.37-11.465
			c6.126-7.033,14.583-9.227,24.539-6.012c0-26.822,0-53.485,0-80.146C73.457,7.823,73.839,7.703,74.218,7.582z"/>
	</g>
	<g id="Calque_3" display="none">
		<g display="inline">
			<g id="XMLID_13_">
				<g>
					<polygon fill="#FFFFFF" points="109.761,14.942 109.662,15.236 58.742,18.174 37.198,10.34 87.141,7.402 					"/>
					<polygon fill="#FFFFFF" points="58.742,18.174 58.742,112.183 37.198,93.577 37.198,10.34 					"/>
					<polygon fill="#666666" points="109.662,15.236 109.662,102.389 58.742,112.183 58.742,18.174 					"/>
				</g>
				<g>
					<polygon fill="none" stroke="#000000" stroke-width="2" stroke-miterlimit="10" points="109.662,15.236 109.662,102.389 
						58.742,112.183 58.742,18.174 					"/>
					<line fill="none" stroke="#000000" stroke-width="2" stroke-miterlimit="10" x1="58.742" y1="18.174" x2="37.198" y2="10.34"/>
					<line fill="none" stroke="#000000" stroke-width="2" stroke-miterlimit="10" x1="37.198" y1="10.34" x2="87.141" y2="7.402"/>
					<polyline fill="none" stroke="#000000" stroke-width="2" stroke-miterlimit="10" points="87.141,7.402 109.761,14.942 
						110.642,15.236 					"/>
					<line fill="none" stroke="#000000" stroke-width="2" stroke-miterlimit="10" x1="37.198" y1="10.34" x2="37.198" y2="93.577"/>
					
						<line fill="none" stroke="#000000" stroke-width="2" stroke-miterlimit="10" x1="37.198" y1="93.577" x2="58.742" y2="112.183"/>
				</g>
			</g>
		</g>
	</g>
	<g id="Calque_5" display="none">
		<g display="inline">
			<g id="XMLID_12_">
				<g>
					<path fill="#FFFFFF" d="M33.418,60.147c0-0.871,0.031-1.734,0.082-2.595h1.755c1.653-1.319,4.066-5.752,6.026-11.296
						c2.464-6.968,3.881-13.093,2.403-13.623l-0.103-0.095c8.46-10.07,21.467-16.517,36.037-16.517
						c25.511,0,46.198,19.758,46.198,44.125c0,24.369-20.688,44.127-46.198,44.127C54.105,104.274,33.418,84.517,33.418,60.147z
						 M99.986,34.263c1.006-3.582-3.009-7.88-8.974-9.583c-5.954-1.713-11.592-0.187-12.607,3.396
						c-0.996,3.592,3.019,7.881,8.974,9.594C93.333,39.372,98.98,37.846,99.986,34.263z"/>
					<path fill="#FFFFFF" d="M31.488,42.341c2.937-8.338,4.065-15.698,2.762-17.412l0.379-0.436l8.953,8.046
						C37.75,39.464,34.064,48.114,33.5,57.551H22.833C24.938,56.867,28.603,50.534,31.488,42.341z"/>
					<path fill="#FFFFFF" d="M33.5,57.553c0.564-9.439,4.25-18.086,10.082-25.012l0.103,0.093c1.479,0.531,0.061,6.656-2.403,13.623
						c-1.96,5.545-4.373,9.978-6.026,11.296H33.5L33.5,57.553z"/>
					<path d="M91.013,24.68c5.965,1.703,9.979,6.001,8.974,9.583c-1.008,3.583-6.653,5.108-12.607,3.406
						c-5.955-1.713-9.97-6.001-8.974-9.594C79.421,24.494,85.059,22.968,91.013,24.68z"/>
					<path d="M34.25,24.929c1.304,1.713,0.175,9.074-2.762,17.412c-2.885,8.192-6.55,14.526-8.655,15.211h-0.667
						c-1.899-0.747-0.852-8.659,2.351-17.723c3.212-9.106,7.381-15.928,9.312-15.232C33.992,24.659,34.136,24.763,34.25,24.929z"/>
				</g>
				<g>
					<path fill="none" stroke="#000000" stroke-width="2" stroke-miterlimit="10" d="M43.582,32.541
						c8.46-10.072,21.467-16.519,36.037-16.519c25.511,0,46.198,19.758,46.198,44.125c0,24.369-20.688,44.127-46.198,44.127
						c-25.513,0-46.2-19.758-46.2-44.127c0-0.871,0.031-1.734,0.082-2.595"/>
					<path fill="none" stroke="#000000" stroke-width="2" stroke-miterlimit="10" d="M34.25,24.929
						c1.304,1.713,0.175,9.074-2.762,17.412c-2.885,8.192-6.55,14.526-8.655,15.211c-0.236,0.073-0.452,0.083-0.646,0.011
						c-0.01,0-0.01-0.011-0.021-0.011c-1.899-0.747-0.852-8.659,2.351-17.723c3.212-9.106,7.381-15.928,9.312-15.232
						C33.992,24.659,34.136,24.763,34.25,24.929z"/>
					<path fill="none" stroke="#000000" stroke-width="2" stroke-miterlimit="10" d="M43.685,32.634
						c1.479,0.529,0.061,6.655-2.403,13.623c-1.96,5.544-4.373,9.978-6.026,11.296c-0.421,0.332-0.8,0.456-1.098,0.353"/>
					<polyline fill="none" stroke="#000000" stroke-width="2" stroke-miterlimit="10" points="34.444,24.328 34.629,24.494 
						43.582,32.541 43.685,32.634 					"/>
					<polyline fill="none" stroke="#000000" stroke-width="2" stroke-miterlimit="10" points="21.036,57.553 22.166,57.553 
						22.833,57.553 33.5,57.553 35.255,57.553 35.471,57.553 					"/>
					<path fill="none" stroke="#000000" stroke-width="2" stroke-miterlimit="10" d="M99.986,34.263
						c-1.008,3.583-6.653,5.108-12.607,3.406c-5.955-1.713-9.97-6.001-8.974-9.594c1.016-3.583,6.653-5.107,12.607-3.396
						C96.978,26.383,100.992,30.682,99.986,34.263z"/>
				</g>
			</g>
		</g>
	</g>
	<g id="Calque_6_1_" display="none">
		<g display="inline" opacity="0.5">
			<path fill="#FFFFFF" d="M21.854,113c0-34.88,0-69.76,0-104.639c34.88,0,69.76,0,104.639,0c0,34.879,0,69.759,0,104.639
				C91.613,113,56.734,113,21.854,113z M67.748,19.458C58.924,17.932,55.373,20.951,55.359,30c-0.003,1.772-0.002,3.542-0.002,5.313
				c0,9.46,0,18.918,0,29.361c-1.56-1.933-2.461-3.062-3.378-4.177c-3.721-4.527-8.586-5.71-12.532-3.055
				c-3.851,2.592-4.774,7.216-2.016,12.349c3.926,7.305,8.064,14.499,12.231,21.672c8.603,14.807,20.251,19.462,39.047,16.478
				c7.995-1.269,14.274-5.848,17.325-13.413c1.991-4.938,3.38-10.426,3.577-15.721c0.496-13.328,0.346-26.693,0.035-40.034
				c-0.076-3.192-0.931-7.182-2.987-9.275c-1.94-1.975-5.932-1.937-9.507-2.917c0.108,0.515-0.01,0.128-0.051-0.269
				c-0.809-7.773-3.566-9.98-11.174-9.058c-0.804,0.098-1.916-0.043-2.471-0.539C76.423,10.452,71.762,11.236,67.748,19.458z"/>
			<path d="M67.748,19.458c4.014-8.221,8.675-9.007,15.712-2.744c0.555,0.495,1.667,0.637,2.471,0.539
				c7.607-0.923,10.364,1.284,11.174,9.058c0.041,0.396,0.159,0.784,0.051,0.269c3.575,0.98,7.566,0.942,9.507,2.917
				c2.056,2.093,2.911,6.083,2.987,9.275c0.31,13.341,0.461,26.706-0.035,40.034c-0.197,5.296-1.586,10.782-3.576,15.721
				c-3.052,7.565-9.331,12.145-17.326,13.413c-18.797,2.984-30.444-1.671-39.047-16.478c-4.167-7.173-8.305-14.367-12.231-21.672
				c-2.759-5.132-1.835-9.757,2.016-12.349c3.946-2.655,8.811-1.472,12.532,3.055c0.919,1.115,1.819,2.244,3.378,4.177
				c0-10.443,0-19.901,0-29.361c0-1.77-0.002-3.542,0.002-5.313C55.373,20.951,58.924,17.931,67.748,19.458z M105.511,59.708
				c-0.031,0-0.061,0-0.092,0c0-7.76,0.042-15.521-0.023-23.279c-0.021-2.666-0.846-4.989-4.101-4.982
				c-3.045,0.005-3.697,2.345-4.03,4.729c-0.188,1.338-0.115,2.716-0.12,4.077c-0.014,5.037,0.102,10.08-0.107,15.109
				c-0.042,1.009-1.283,1.967-1.973,2.95c-0.688-0.999-1.611-1.917-1.997-3.021c-0.339-0.972-0.076-2.155-0.079-3.244
				c-0.019-8.577,0.019-17.156-0.082-25.731c-0.031-2.752-0.733-5.331-4.287-5.212c-3.537,0.118-3.939,2.611-3.926,5.454
				c0.046,8.578,0.102,17.156-0.072,25.731c-0.028,1.343-1.227,2.663-1.883,3.994c-0.735-1.353-2.082-2.694-2.11-4.061
				c-0.188-9.391-0.085-18.786-0.115-28.181c-0.004-1.35,0.205-2.967-0.439-3.98c-0.839-1.318-2.519-3.075-3.679-2.964
				c-1.439,0.136-3.094,1.76-3.945,3.171c-0.684,1.135-0.389,2.907-0.394,4.396c-0.028,9.394,0.05,18.791-0.111,28.182
				c-0.021,1.155-1.256,2.286-1.929,3.429c-0.729-1.127-1.993-2.211-2.088-3.388c-0.282-3.519-0.103-7.072-0.109-10.613
				c-0.011-4.9,0.001-9.802-0.049-14.704c-0.03-2.738-1.502-4.846-4.172-4.248c-1.584,0.354-2.916,2.561-3.977,4.185
				c-0.503,0.769-0.116,2.123-0.116,3.213c-0.002,12.253,0.062,24.507-0.073,36.761c-0.019,1.812-0.986,3.616-1.516,5.425
				c-1.501-1.2-3.186-2.231-4.46-3.635c-1.825-2.007-3.318-4.31-5.013-6.44c-1.8-2.262-4.156-3.478-6.748-1.714
				c-2.505,1.705-1.966,4.276-0.658,6.574c4.635,8.153,9.143,16.388,14.062,24.369c3.682,5.973,8.836,10.663,16.052,11.55
				c5.604,0.688,11.426,0.83,17.01,0.111c6.565-0.846,11.733-4.863,14.176-11.051c1.755-4.449,2.662-9.388,3.053-14.182
				C105.894,72.266,105.511,65.971,105.511,59.708z"/>
		</g>
	</g>
	<g id="Calque_7" display="none">
		<g display="inline">
			<g id="XMLID_11_">
				<g>
					<path fill="#FFFFFF" d="M104.763,37.598c0,0,2.899-1.61,5.798,1.29c2.815,2.815-0.645,7.729-0.645,7.729
						s-8.374,8.374-27.057,27.058c-18.681,18.682-31.566,9.662-36.721,4.509c-16.104-16.105-9.373-31.276-8.375-34.144
						c0.999-2.866,3.865-12.883,4.509-16.105c0.645-3.22,3.865-7.729,8.376-7.086c4.509,0.645,4.509,5.798,4.509,5.798v11.596
						L83.504,9.896c0,0,5.153-5.154,9.663-0.644c2.575,2.577,0,6.443,0,6.443l3.864-3.866c0,0,5.153-2.577,8.376,0.645
						c3.221,3.222,0,7.731,0,7.731l-2.577,2.577c0,0,5.153-1.289,7.73,1.288c2.576,2.577,0,7.731,0,7.731l-5.153,5.153
						L104.763,37.598z"/>
				</g>
				<g>
					<path fill="none" stroke="#000000" stroke-width="2" stroke-miterlimit="10" d="M105.407,36.955l5.155-5.153
						c0,0,2.575-5.155,0-7.732c-2.578-2.577-7.731-1.288-7.731-1.288l2.576-2.577c0,0,3.223-4.509,0-7.731
						c-3.221-3.221-8.375-0.645-8.375-0.645l-3.865,3.866c0,0,2.576-3.866,0-6.443c-4.509-4.51-9.663,0.644-9.663,0.644
						L55.158,38.242V26.646c0,0,0-5.154-4.509-5.798c-4.51-0.644-7.731,3.866-8.376,7.087c-0.644,3.22-3.511,13.239-4.509,16.105
						c-0.998,2.866-7.73,18.038,8.375,34.144c5.154,5.153,18.04,14.173,36.721-4.51c18.683-18.683,27.057-27.058,27.057-27.058
						s3.46-4.916,0.645-7.73c-2.899-2.899-5.798-1.289-5.798-1.289"/>
					<line fill="none" stroke="#000000" stroke-width="2" stroke-miterlimit="10" x1="93.167" y1="15.695" x2="72.553" y2="36.31"/>
					
						<line fill="none" stroke="#000000" stroke-width="2" stroke-miterlimit="10" x1="102.83" y1="22.781" x2="80.927" y2="44.684"/>
					<polyline fill="none" stroke="#000000" stroke-width="2" stroke-miterlimit="10" points="105.407,36.955 104.763,37.598 
						87.369,54.993 					"/>
				</g>
			</g>
		</g>
		<g display="inline">
			<g id="XMLID_10_">
				<g>
					<path fill="#FFFFFF" d="M99.073,46.832c0,0,1.72-2.836,5.674-1.755c3.84,1.049,3.274,7.034,3.274,7.034
						S104.9,63.536,97.938,89.022c-6.963,25.486-22.623,24.042-29.654,22.122c-21.973-6.001-23.647-22.515-24.202-25.501
						c-0.554-2.984-3.03-13.105-4.067-16.222c-1.038-3.117-0.477-8.63,3.759-10.307c4.236-1.676,6.791,2.801,6.791,2.801l5.75,10.07
						l10.562-38.671c0,0,1.922-7.031,8.073-5.351c3.515,0.961,3.192,5.595,3.192,5.595l1.44-5.272c0,0,3.198-4.793,7.594-3.592
						c4.394,1.2,3.833,6.714,3.833,6.714l-0.961,3.516c0,0,3.837-3.674,7.353-2.714c3.516,0.959,3.832,6.713,3.832,6.713
						l-1.919,7.03L99.073,46.832z"/>
				</g>
				<g>
					<path fill="none" stroke="#000000" stroke-width="2" stroke-miterlimit="10" d="M99.314,45.954l1.919-7.032
						c0,0-0.316-5.753-3.832-6.713c-3.517-0.96-7.353,2.714-7.353,2.714l0.961-3.516c0,0,0.561-5.513-3.833-6.714
						c-4.395-1.2-7.594,3.592-7.594,3.592l-1.44,5.272c0,0,0.322-4.634-3.192-5.595c-6.151-1.68-8.073,5.351-8.073,5.351
						L56.315,71.985l-5.75-10.071c0,0-2.555-4.475-6.791-2.799c-4.236,1.675-4.797,7.19-3.759,10.307
						c1.037,3.116,3.514,13.237,4.068,16.222c0.555,2.984,2.229,19.499,24.202,25.5c7.031,1.919,22.691,3.365,29.654-22.123
						c6.962-25.485,10.083-36.912,10.083-36.912s0.566-5.983-3.273-7.033c-3.956-1.08-5.674,1.757-5.674,1.757"/>
					
						<line fill="none" stroke="#000000" stroke-width="2" stroke-miterlimit="10" x1="78.143" y1="33.559" x2="70.462" y2="61.684"/>
					
						<line fill="none" stroke="#000000" stroke-width="2" stroke-miterlimit="10" x1="90.049" y1="34.923" x2="81.888" y2="64.805"/>
					<polyline fill="none" stroke="#000000" stroke-width="2" stroke-miterlimit="10" points="99.314,45.954 99.073,46.832 
						92.592,70.562 					"/>
				</g>
			</g>
		</g>
	</g>
	<g id="Calque_7_-_copie" display="none">
		<g display="inline">
			<g id="XMLID_9_">
				<g>
					<path d="M93.167,15.695l3.865-3.866c0,0,5.154-2.577,8.375,0.645c3.223,3.222,0,7.731,0,7.731l-2.576,2.577
						c0,0,5.153-1.289,7.731,1.288c2.575,2.577,0,7.731,0,7.731l-5.155,5.153l-0.644,0.645c0,0,2.9-1.61,5.799,1.29
						c2.814,2.815-0.646,7.729-0.646,7.729s-8.375,8.374-27.057,27.058c-18.682,18.682-31.567,9.662-36.721,4.509
						c-16.104-16.105-9.373-31.276-8.375-34.144c0.999-2.866,3.865-12.883,4.509-16.105c0.645-3.22,3.865-7.729,8.376-7.086
						c4.51,0.645,4.51,5.798,4.51,5.798v11.596L83.504,9.896c0,0,5.153-5.154,9.663-0.644C95.743,11.83,93.167,15.695,93.167,15.695
						z"/>
				</g>
				<g>
					<path fill="none" stroke="#FFFFFF" stroke-width="2" stroke-miterlimit="10" d="M105.407,36.955l5.155-5.153
						c0,0,2.575-5.155,0-7.732c-2.578-2.577-7.731-1.288-7.731-1.288l2.576-2.577c0,0,3.223-4.509,0-7.731
						c-3.221-3.221-8.375-0.645-8.375-0.645l-3.865,3.866c0,0,2.576-3.866,0-6.443c-4.509-4.51-9.663,0.644-9.663,0.644
						L55.158,38.242V26.646c0,0,0-5.154-4.509-5.798c-4.51-0.644-7.731,3.866-8.376,7.087c-0.644,3.22-3.511,13.239-4.509,16.105
						c-0.998,2.866-7.73,18.038,8.375,34.144c5.154,5.153,18.04,14.173,36.721-4.51c18.683-18.683,27.057-27.058,27.057-27.058
						s3.46-4.916,0.645-7.73c-2.899-2.899-5.798-1.289-5.798-1.289"/>
					<line fill="none" stroke="#FFFFFF" stroke-width="2" stroke-miterlimit="10" x1="93.167" y1="15.695" x2="72.553" y2="36.31"/>
					
						<line fill="none" stroke="#FFFFFF" stroke-width="2" stroke-miterlimit="10" x1="102.83" y1="22.781" x2="80.927" y2="44.684"/>
					<polyline fill="none" stroke="#FFFFFF" stroke-width="2" stroke-miterlimit="10" points="105.407,36.955 104.763,37.598 
						87.369,54.993 					"/>
				</g>
			</g>
		</g>
		<g display="inline">
			<g id="XMLID_8_">
				<g>
					<path d="M99.073,46.832c0,0,1.72-2.836,5.674-1.755c3.84,1.049,3.274,7.034,3.274,7.034S104.9,63.536,97.938,89.022
						c-6.963,25.486-22.623,24.042-29.654,22.122c-21.973-6.001-23.647-22.515-24.202-25.501c-0.554-2.984-3.03-13.105-4.067-16.222
						c-1.038-3.117-0.477-8.63,3.759-10.307c4.236-1.676,6.791,2.801,6.791,2.801l5.75,10.07l10.562-38.671
						c0,0,1.922-7.031,8.073-5.351c3.515,0.961,3.192,5.595,3.192,5.595l1.44-5.272c0,0,3.198-4.793,7.594-3.592
						c4.394,1.2,3.833,6.714,3.833,6.714l-0.961,3.516c0,0,3.837-3.674,7.353-2.714c3.516,0.959,3.832,6.713,3.832,6.713
						l-1.919,7.03L99.073,46.832z"/>
				</g>
				<g>
					<path fill="none" stroke="#FFFFFF" stroke-width="2" stroke-miterlimit="10" d="M99.314,45.954l1.919-7.032
						c0,0-0.316-5.753-3.832-6.713c-3.517-0.96-7.353,2.714-7.353,2.714l0.961-3.516c0,0,0.561-5.513-3.833-6.714
						c-4.395-1.2-7.594,3.592-7.594,3.592l-1.44,5.272c0,0,0.322-4.634-3.192-5.595c-6.151-1.68-8.073,5.351-8.073,5.351
						L56.315,71.985l-5.75-10.071c0,0-2.555-4.475-6.791-2.799c-4.236,1.675-4.797,7.19-3.759,10.307
						c1.037,3.116,3.514,13.237,4.068,16.222c0.555,2.984,2.229,19.499,24.202,25.5c7.031,1.919,22.691,3.365,29.654-22.123
						c6.962-25.485,10.083-36.912,10.083-36.912s0.566-5.983-3.273-7.033c-3.956-1.08-5.674,1.757-5.674,1.757"/>
					
						<line fill="none" stroke="#FFFFFF" stroke-width="2" stroke-miterlimit="10" x1="78.143" y1="33.559" x2="70.462" y2="61.684"/>
					
						<line fill="none" stroke="#FFFFFF" stroke-width="2" stroke-miterlimit="10" x1="90.049" y1="34.923" x2="81.888" y2="64.805"/>
					<polyline fill="none" stroke="#FFFFFF" stroke-width="2" stroke-miterlimit="10" points="99.314,45.954 99.073,46.832 
						92.592,70.562 					"/>
				</g>
			</g>
		</g>
	</g>
	<g id="Calque_10_1_">
		<g>
			<g id="XMLID_7_">
				<g>
					<polygon points="99.35,37.426 94.11,44.182 88.936,40.162 92.485,32.079 					"/>
					<polygon points="106,42.6 99.05,48.031 94.11,44.182 99.35,37.426 					"/>
					<polygon points="59.812,88.66 79.334,88.66 84.616,112.183 20.465,112.183 25.79,88.425 26.88,88.66 					"/>
					<polygon points="61.094,7.402 62.527,13.818 42.555,13.818 43.987,7.402 					"/>
				</g>
				<g>
					<polygon fill="none" stroke="#000000" stroke-width="4" stroke-miterlimit="10" points="25.79,88.425 20.465,112.183 
						84.616,112.183 79.334,88.66 74.931,69.052 62.527,13.818 61.094,7.402 43.987,7.402 42.555,13.818 					"/>
					<polyline fill="none" stroke="#000000" stroke-width="4" stroke-miterlimit="10" points="26.88,88.66 59.812,88.66 
						79.334,88.66 80.338,88.66 					"/>
					<line fill="none" stroke="#000000" stroke-width="4" stroke-miterlimit="10" x1="99.35" y1="37.426" x2="106" y2="28.786"/>
					<polyline fill="none" stroke="#000000" stroke-width="4" stroke-miterlimit="10" points="48.264,103.63 59.812,88.66 
						74.931,69.052 94.11,44.182 					"/>
					<polygon fill="none" stroke="#000000" stroke-width="4" stroke-miterlimit="10" points="99.35,37.426 106,42.6 99.05,48.031 
						94.11,44.182 88.936,40.162 92.485,32.079 					"/>
					<polyline fill="none" stroke="#000000" stroke-width="4" stroke-miterlimit="10" points="41.849,13.818 42.555,13.818 
						62.527,13.818 63.232,13.818 					"/>
				</g>
			</g>
		</g>
	</g>
</g>
</svg>
