<?xml version="1.0" encoding="utf-8"?>
<!-- Generator: Adobe Illustrator 16.0.0, SVG Export Plug-In . SVG Version: 6.00 Build 0)  -->
<!DOCTYPE svg PUBLIC "-//W3C//DTD SVG 1.1//EN" "http://www.w3.org/Graphics/SVG/1.1/DTD/svg11.dtd">
<svg version="1.1" id="sordas" xmlns="http://www.w3.org/2000/svg" xmlns:xlink="http://www.w3.org/1999/xlink" x="0px" y="0px"
	 width="120px" height="120px" viewBox="0 0 120 120" enable-background="new 0 0 120 120" xml:space="preserve">
<g>
	<g id="XMLID_6_">
		<g>
			<path d="M91.701,37.547c0,0,2.934-1.629,5.866,1.304c2.848,2.848-0.652,7.82-0.652,7.82s-8.472,8.472-27.372,27.373
				c-18.899,18.899-31.934,9.775-37.148,4.562c-16.292-16.293-9.482-31.641-8.472-34.541c1.01-2.9,3.91-13.034,4.562-16.293
				c0.652-3.258,3.91-7.82,8.473-7.169c4.562,0.652,4.562,5.866,4.562,5.866v11.731L70.195,9.523c0,0,5.213-5.214,9.775-0.652
				c2.606,2.607,0,6.518,0,6.518l3.91-3.911c0,0,5.214-2.607,8.473,0.652s0,7.821,0,7.821l-2.607,2.607c0,0,5.214-1.304,7.821,1.303
				c2.606,2.607,0,7.821,0,7.821l-5.214,5.213L91.701,37.547z"/>
		</g>
		<g>
			<path fill="none" stroke="#FFFFFF" stroke-width="4" stroke-miterlimit="10" d="M92.354,36.896l5.214-5.213
				c0,0,2.606-5.214,0-7.821c-2.607-2.607-7.821-1.303-7.821-1.303l2.607-2.607c0,0,3.259-4.562,0-7.821s-8.473-0.652-8.473-0.652
				l-3.91,3.911c0,0,2.606-3.911,0-6.518c-4.562-4.562-9.775,0.652-9.775,0.652L41.52,38.199V26.468c0,0,0-5.214-4.562-5.866
				c-4.562-0.651-7.821,3.911-8.473,7.169c-0.652,3.259-3.552,13.393-4.562,16.293c-1.01,2.9-7.82,18.248,8.472,34.541
				c5.214,5.214,18.249,14.338,37.148-4.562c18.9-18.9,27.372-27.373,27.372-27.373s3.5-4.973,0.652-7.82
				c-2.933-2.933-5.866-1.304-5.866-1.304"/>
			<line fill="none" stroke="#FFFFFF" stroke-width="4" stroke-miterlimit="10" x1="79.971" y1="15.389" x2="59.116" y2="36.244"/>
			<line fill="none" stroke="#FFFFFF" stroke-width="4" stroke-miterlimit="10" x1="89.746" y1="22.558" x2="67.588" y2="44.716"/>
			<polyline fill="none" stroke="#FFFFFF" stroke-width="4" stroke-miterlimit="10" points="92.354,36.896 91.701,37.547 
				74.105,55.144 			"/>
		</g>
	</g>
</g>
<g>
	<g id="XMLID_5_">
		<g>
			<path d="M85.946,46.889c0,0,1.739-2.869,5.74-1.776c3.885,1.062,3.312,7.115,3.312,7.115s-3.157,11.559-10.2,37.342
				c-7.044,25.784-22.887,24.322-30,22.38c-22.228-6.071-23.922-22.777-24.483-25.797S27.249,72.895,26.2,69.741
				c-1.05-3.153-0.482-8.73,3.803-10.426s6.87,2.833,6.87,2.833l5.816,10.188l10.686-39.121c0,0,1.943-7.113,8.167-5.413
				c3.556,0.972,3.23,5.66,3.23,5.66l1.457-5.334c0,0,3.235-4.849,7.682-3.634c4.445,1.214,3.877,6.792,3.877,6.792l-0.972,3.557
				c0,0,3.882-3.717,7.438-2.746c3.557,0.972,3.877,6.792,3.877,6.792L86.189,46L85.946,46.889z"/>
		</g>
		<g>
			<path fill="none" stroke="#FFFFFF" stroke-width="4" stroke-miterlimit="10" d="M86.189,46l1.942-7.113
				c0,0-0.32-5.82-3.877-6.792c-3.557-0.971-7.438,2.746-7.438,2.746l0.972-3.557c0,0,0.568-5.577-3.877-6.792
				c-4.446-1.214-7.682,3.634-7.682,3.634l-1.457,5.334c0,0,0.325-4.688-3.23-5.66c-6.224-1.7-8.167,5.413-8.167,5.413
				L42.689,72.335l-5.816-10.188c0,0-2.585-4.528-6.87-2.833S25.15,66.588,26.2,69.741c1.049,3.153,3.555,13.392,4.116,16.411
				s2.255,19.726,24.483,25.797c7.113,1.942,22.956,3.404,30-22.38c7.043-25.783,10.2-37.342,10.2-37.342s0.573-6.053-3.312-7.115
				c-4.001-1.093-5.74,1.776-5.74,1.776"/>
			<line fill="none" stroke="#FFFFFF" stroke-width="4" stroke-miterlimit="10" x1="64.772" y1="33.461" x2="57.001" y2="61.913"/>
			<line fill="none" stroke="#FFFFFF" stroke-width="4" stroke-miterlimit="10" x1="76.816" y1="34.841" x2="68.56" y2="65.07"/>
			<polyline fill="none" stroke="#FFFFFF" stroke-width="4" stroke-miterlimit="10" points="86.189,46 85.946,46.889 79.389,70.895 
							"/>
		</g>
	</g>
</g>
</svg>
