<?xml version="1.0" encoding="utf-8"?>
<!-- Generator: Adobe Illustrator 16.0.0, SVG Export Plug-In . SVG Version: 6.00 Build 0)  -->
<!DOCTYPE svg PUBLIC "-//W3C//DTD SVG 1.1//EN" "http://www.w3.org/Graphics/SVG/1.1/DTD/svg11.dtd">
<svg version="1.1" xmlns="http://www.w3.org/2000/svg" xmlns:xlink="http://www.w3.org/1999/xlink" x="0px" y="0px"
	 viewBox="0 0 120 120" enable-background="new 0 0 120 120" xml:space="preserve">
<g>
	<g id="XMLID_2_">
		<g>
			<path fill="#FFFFFF" d="M19.526,60.36c0-0.882,0.031-1.754,0.083-2.626h1.776c1.672-1.334,4.113-5.819,6.096-11.428
				c2.493-7.048,3.926-13.245,2.431-13.781l-0.104-0.095C38.366,22.242,51.525,15.72,66.263,15.72
				C92.072,15.72,113,35.708,113,60.36S92.072,105,66.263,105C40.454,105,19.526,85.012,19.526,60.36z M86.869,34.174
				c1.018-3.624-3.044-7.972-9.078-9.695c-6.023-1.733-11.726-0.189-12.754,3.435c-1.007,3.634,3.054,7.973,9.078,9.706
				C80.139,39.342,85.851,37.798,86.869,34.174z"/>
			<path fill="#FFFFFF" d="M17.573,42.346c2.971-8.435,4.113-15.881,2.794-17.615l0.384-0.441l9.057,8.14
				c-5.899,7.006-9.628,15.755-10.199,25.303H8.818C10.947,57.041,14.655,50.634,17.573,42.346z"/>
			<path fill="#FFFFFF" d="M19.609,57.734c0.571-9.548,4.3-18.297,10.199-25.303l0.104,0.095c1.496,0.536,0.062,6.733-2.431,13.781
				c-1.983,5.609-4.424,10.094-6.096,11.428H19.609z"/>
			<path d="M77.791,24.479c6.034,1.723,10.096,6.071,9.078,9.695c-1.019,3.624-6.73,5.168-12.754,3.445
				c-6.024-1.733-10.085-6.071-9.078-9.706C66.065,24.291,71.768,22.747,77.791,24.479z"/>
			<path d="M20.367,24.731c1.319,1.733,0.177,9.18-2.794,17.615c-2.918,8.288-6.626,14.695-8.755,15.388H8.143
				c-1.921-0.756-0.862-8.76,2.378-17.93c3.25-9.211,7.467-16.112,9.42-15.409C20.107,24.458,20.253,24.563,20.367,24.731z"/>
		</g>
		<g>
			<path fill="none" stroke="#000000" stroke-width="2" stroke-miterlimit="10" d="M29.808,32.431
				C38.366,22.242,51.525,15.72,66.263,15.72C92.072,15.72,113,35.708,113,60.36S92.072,105,66.263,105
				c-25.809,0-46.737-19.988-46.737-44.64c0-0.882,0.031-1.754,0.083-2.626"/>
			<path fill="none" stroke="#000000" stroke-width="2" stroke-miterlimit="10" d="M20.367,24.731
				c1.319,1.733,0.177,9.18-2.794,17.615c-2.918,8.288-6.626,14.695-8.755,15.388c-0.239,0.074-0.457,0.084-0.654,0.011
				c-0.01,0-0.01-0.011-0.021-0.011c-1.921-0.756-0.862-8.76,2.378-17.93c3.25-9.211,7.467-16.112,9.42-15.409
				C20.107,24.458,20.253,24.563,20.367,24.731z"/>
			<path fill="none" stroke="#000000" stroke-width="2" stroke-miterlimit="10" d="M29.912,32.525
				c1.496,0.536,0.062,6.733-2.431,13.781c-1.983,5.609-4.424,10.094-6.096,11.428c-0.426,0.336-0.81,0.462-1.111,0.357"/>
			<polyline fill="none" stroke="#000000" stroke-width="2" stroke-miterlimit="10" points="20.564,24.123 20.751,24.291 
				29.808,32.431 29.912,32.525 			"/>
			<polyline fill="none" stroke="#000000" stroke-width="2" stroke-miterlimit="10" points="7,57.734 8.143,57.734 8.818,57.734 
				19.609,57.734 21.385,57.734 21.603,57.734 			"/>
			<path fill="none" stroke="#000000" stroke-width="2" stroke-miterlimit="10" d="M86.869,34.174
				c-1.019,3.624-6.73,5.168-12.754,3.445c-6.024-1.733-10.085-6.071-9.078-9.706c1.028-3.624,6.73-5.167,12.754-3.435
				C83.825,26.202,87.887,30.551,86.869,34.174z"/>
		</g>
	</g>
</g>
</svg>
