<?xml version="1.0" encoding="utf-8"?>
<!-- Generator: Adobe Illustrator 16.0.0, SVG Export Plug-In . SVG Version: 6.00 Build 0)  -->
<!DOCTYPE svg PUBLIC "-//W3C//DTD SVG 1.1//EN" "http://www.w3.org/Graphics/SVG/1.1/DTD/svg11.dtd">
<svg version="1.1" id="click" xmlns="http://www.w3.org/2000/svg" xmlns:xlink="http://www.w3.org/1999/xlink" x="0px" y="0px"
	 width="120px" height="120px" viewBox="0 0 120 120" enable-background="new 0 0 120 120" xml:space="preserve">
<g id="Calque_1_1_" display="none">
	<path display="inline" fill="#FFFFFF" d="M-36.015,110.487c0-56.426,0-112.853,0-169.279c56.426,0,112.853,0,169.279,0
		c0,56.426,0,112.853,0,169.279C76.838,110.487,20.413,110.487-36.015,110.487z M-16.575,89.523c-0.522-0.094-0.865-0.127-1.19-0.22
		c-5.334-1.519-10.976,0.642-13.972,5.358c-2.75,4.332-0.487,8.789,4.639,8.92c4.798,0.125,12.339-3.957,12.141-11.297
		c-0.337-12.416-0.092-24.848-0.092-37.273c0-5.397-0.015-5.466,5.196-6.624c9.162-2.037,18.343-3.979,27.669-5.995
		c0,13.311,0,26.416,0,39.612c-0.402-0.074-0.738-0.105-1.057-0.197C11.375,80.28,5.458,82.65,2.644,87.467
		c-2.266,3.879-0.769,7.361,3.619,8.451c4.825,1.195,13.464-3.809,13.367-10.359c-0.247-16.739-0.081-33.485-0.091-50.229
		c0-0.671-0.105-1.341-0.178-2.198c-12.068,2.582-23.947,5.124-35.936,7.69C-16.575,57.186-16.575,73.293-16.575,89.523z
		 M5.981,14.125c0.087,0.086,0.174,0.171,0.261,0.257c0.746-2.258,2.078-4.503,2.123-6.775C8.486,1.602,8.022-4.415,7.851-10.427
		c-0.049-1.713,0.011-3.441,0.181-5.147c0.399-4.005-0.313-7.811-2.655-11.04c-2.261-3.118-4.823-6.05-7.51-8.812
		c-2.223-2.287-3.988-4.646-4.269-7.924c-0.041-0.472-0.55-0.903-0.841-1.353c-0.23,0.083-0.461,0.166-0.69,0.25
		c0,18.693,0,37.387,0,56.16c-6.507-1.806-11.987-0.152-15.124,4.392c-2.479,3.592-1.229,7.668,2.829,9.226
		c6.045,2.321,13.744-3.098,13.787-9.771C-6.391,7.36-6.43-0.836-6.417-9.029c0.001-0.729,0.101-1.457,0.181-2.536
		C-2.73-9,0.507-6.74,3.62-4.32c2.473,1.923,4.137,4.533,3.921,7.713C7.296,6.989,6.523,10.55,5.981,14.125z M74.709,28.34
		c-0.258,0.083-0.517,0.164-0.773,0.245c0,18.062,0,36.125,0,54.295c-6.745-2.178-12.474-0.692-16.624,4.072
		c-2.003,2.299-2.972,4.888-1.606,7.766c1.316,2.77,3.747,4.098,6.814,4.203c7.274,0.247,13.045-5.242,13.073-12.56
		c0.046-11.989,0.012-23.978,0.012-35.966c0-0.914,0-1.825,0-3.058c6.601,1.724,10.754,5.544,13.179,11.325
		c2.621,6.246,1.171,12.247-1.252,18.161c-0.597,1.459-1.226,2.904-1.84,4.354c0.29,0.129,0.578,0.256,0.868,0.386
		c1.249-2.732,2.706-5.387,3.705-8.207c2.36-6.669,3.225-13.426-0.851-19.78c-1.986-3.096-4.282-6.045-6.769-8.755
		c-3.934-4.29-6.694-9.002-7.042-14.94C75.573,29.353,75.019,28.854,74.709,28.34z M42.832,20.771
		c0.721-0.094,1.165-0.102,1.582-0.213c1.874-0.504,3.052-1.806,2.594-3.662c-0.333-1.349-1.251-2.979-2.389-3.604
		c-1.661-0.911-3.775-0.258-4.405,1.627c-0.529,1.585-0.603,3.685,0,5.208c1.237,3.125,4.668,4.399,8.209,3.615
		c2.793-0.62,4.968-3.143,5.036-6.333c0.052-2.445-0.212-4.915-0.551-7.344c-0.288-2.057-0.088-3.413,1.999-4.704
		c4.021-2.485,5.26-6.522,4.284-11.053c-0.867-4.023-3.489-6.381-7.661-6.891c-0.498-0.061-1.112-0.16-1.437-0.479
		c-0.909-0.896-0.668-6.646,0.255-7.627c5.632-5.977,7.807-12.853,5.189-20.836c-0.561-1.712-1.75-3.219-2.649-4.821
		c-1.423,1.445-3.302,2.658-4.179,4.382c-2.155,4.242-2.732,8.872-1.907,13.607c0.348,1.996,0.105,3.494-1.575,5.122
		c-2.942,2.851-5.879,5.932-7.924,9.438c-4.435,7.605-0.466,18.166,7.512,20.73c2.01,0.646,4.252,0.573,6.751,0.875
		c0.237,3.098,0.674,6.325,0.67,9.553c-0.004,2.514-1.59,4.312-3.979,5.045C46.393,22.98,44.434,23.079,42.832,20.771z
		 M109.247-41.316c-0.354,0.076-0.708,0.153-1.061,0.229c0,17.769,0,35.539,0,53.401c-7.002-1.92-14.394,0.789-17.697,6.248
		c-2.871,4.744-0.088,9.983,5.442,10.578c6.754,0.726,14.57-6.435,14.276-12.927c-0.354-7.829-0.081-15.687-0.08-23.532
		c0-10.402,0.021-20.804-0.039-31.205C110.083-39.455,109.54-40.384,109.247-41.316z"/>
	<path display="inline" d="M-16.575,89.523c0-16.23,0-32.337,0-48.702c11.988-2.566,23.869-5.108,35.936-7.69
		c0.072,0.857,0.178,1.527,0.178,2.198c0.01,16.744-0.156,33.489,0.091,50.229c0.097,6.551-8.542,11.555-13.367,10.359
		c-4.388-1.09-5.885-4.572-3.619-8.451c2.813-4.816,8.73-7.187,14.116-5.659c0.32,0.092,0.655,0.123,1.057,0.197
		c0-13.197,0-26.301,0-39.612c-9.328,2.016-18.509,3.958-27.669,5.995c-5.211,1.158-5.196,1.227-5.196,6.624
		c0,12.425-0.246,24.857,0.092,37.273c0.2,7.34-7.342,11.422-12.141,11.297c-5.126-0.132-7.39-4.589-4.639-8.92
		c2.995-4.717,8.638-6.877,13.972-5.358C-17.44,89.396-17.097,89.43-16.575,89.523z M-14.666,45.896
		c3.264-0.701,6.5-1.4,9.736-2.091c6.948-1.485,13.901-2.95,20.843-4.468c1.098-0.239,2.689-0.293,1.667-2.361
		c-2.474,0.532-4.944,1.064-7.416,1.591c-7.716,1.65-15.438,3.282-23.146,4.966C-14.055,43.77-15.662,43.828-14.666,45.896z"/>
	<path display="inline" d="M5.981,14.125C6.523,10.55,7.296,6.989,7.541,3.393C7.756,0.214,6.094-2.396,3.62-4.32
		c-3.112-2.42-6.349-4.678-9.856-7.245c-0.08,1.079-0.18,1.808-0.181,2.536C-6.43-0.835-6.391,7.36-6.442,15.553
		c-0.042,6.673-7.742,12.092-13.787,9.771c-4.058-1.557-5.309-5.634-2.829-9.226c3.137-4.544,8.617-6.199,15.124-4.392
		c0-18.773,0-37.467,0-56.16c0.229-0.083,0.46-0.166,0.69-0.25c0.292,0.45,0.802,0.881,0.841,1.353
		c0.281,3.279,2.046,5.638,4.269,7.924c2.687,2.763,5.249,5.695,7.51,8.812c2.341,3.229,3.053,7.035,2.655,11.04
		c-0.17,1.705-0.229,3.434-0.181,5.147C8.022-4.415,8.486,1.601,8.366,7.607c-0.045,2.271-1.378,4.517-2.123,6.775
		C6.155,14.296,6.067,14.211,5.981,14.125z M6.366-4.628C7.973-10.084,1.344-18.75-6.415-22.034
		C-5.407-13.852,2.192-10.793,6.366-4.628z M6.709-15.174c1.339-5.577-5.771-14.761-13.313-17.341
		c0.836,2.235,1.65,4.579,3.142,6.355C-0.266-22.354,3.279-18.84,6.709-15.174z"/>
	<path display="inline" d="M74.709,28.34c0.31,0.513,0.864,1.012,0.895,1.542c0.348,5.938,3.108,10.649,7.042,14.939
		c2.486,2.712,4.782,5.661,6.769,8.756c4.075,6.353,3.211,13.11,0.851,19.781c-0.999,2.819-2.456,5.475-3.705,8.205
		c-0.29-0.128-0.578-0.255-0.868-0.385c0.614-1.451,1.243-2.896,1.84-4.354c2.423-5.914,3.873-11.916,1.252-18.162
		c-2.425-5.781-6.578-9.603-13.179-11.325c0,1.231,0,2.145,0,3.057c0,11.989,0.034,23.977-0.012,35.966
		c-0.028,7.317-5.799,12.807-13.073,12.56c-3.067-0.104-5.498-1.434-6.814-4.203c-1.368-2.878-0.396-5.466,1.606-7.766
		c4.15-4.765,9.878-6.251,16.624-4.073c0-18.171,0-36.232,0-54.293C74.192,28.504,74.451,28.423,74.709,28.34z"/>
	<path display="inline" d="M42.832,20.771c1.602,2.307,3.561,2.209,5.426,1.637c2.389-0.735,3.975-2.533,3.979-5.045
		c0.004-3.227-0.434-6.454-0.67-9.553c-2.497-0.302-4.74-0.228-6.751-0.875c-7.978-2.565-11.947-13.125-7.51-20.732
		c2.045-3.506,4.982-6.587,7.924-9.438c1.68-1.628,1.923-3.126,1.575-5.122c-0.825-4.736-0.248-9.366,1.907-13.607
		c0.875-1.723,2.756-2.936,4.179-4.382c0.9,1.602,2.088,3.109,2.649,4.821c2.618,7.982,0.442,14.859-5.188,20.837
		c-0.924,0.98-1.165,6.731-0.256,7.627c0.324,0.32,0.938,0.418,1.437,0.479c4.172,0.51,6.794,2.868,7.661,6.891
		c0.976,4.531-0.264,8.568-4.284,11.053c-2.089,1.292-2.287,2.647-1.999,4.704c0.338,2.429,0.603,4.899,0.551,7.344
		c-0.068,3.19-2.243,5.712-5.036,6.332c-3.541,0.784-6.972-0.49-8.209-3.615c-0.603-1.524-0.53-3.624,0-5.208
		c0.629-1.886,2.744-2.539,4.404-1.627c1.139,0.625,2.056,2.255,2.39,3.604c0.458,1.854-0.721,3.156-2.594,3.662
		C43.998,20.669,43.553,20.678,42.832,20.771z M47.933-18.533c-4.38,3.508-8.307,6.865-9.586,12.264
		c-0.938,3.954,0.301,7.32,3.302,9.972c2.719,2.403,5.867,3.2,9.509,2.169C50.57,1.29,50.007-3.096,49.445-7.481
		c-0.27-0.149-0.54-0.299-0.811-0.449c-1.139,1.299-2.59,2.439-3.35,3.932c-1.432,2.812,0.551,4.796,2.443,6.7
		c-3.166-1.023-4.572-3.349-4.872-6.277c-0.334-3.251,1.083-5.971,3.84-7.571c1.932-1.121,2.163-2.464,1.815-4.298
		C48.347-16.305,48.188-17.167,47.933-18.533z M48.345-26.227c3.477-2.834,6.177-5.745,6.712-9.967
		c0.158-1.25-0.748-2.634-1.167-3.957c-1.229,0.625-2.896,0.937-3.609,1.932C47.807-34.769,47.702-30.772,48.345-26.227z
		 M50.654-7.801c0.589,4.443,1.162,8.777,1.749,13.216c3.218-1.676,4.771-4.545,4.301-7.599C56.232-5.268,54.376-7.072,50.654-7.801
		z"/>
	<path display="inline" d="M109.247-41.316c0.293,0.931,0.836,1.86,0.842,2.793c0.062,10.401,0.039,20.803,0.039,31.205
		c-0.001,7.846-0.274,15.702,0.08,23.532c0.294,6.491-7.522,13.653-14.276,12.927c-5.53-0.594-8.313-5.834-5.442-10.578
		c3.304-5.458,10.695-8.168,17.697-6.247c0-17.864,0-35.633,0-53.401C108.539-41.162,108.894-41.24,109.247-41.316z"/>
	<path display="inline" fill="#FFFFFF" d="M-14.666,45.896c-0.996-2.068,0.611-2.125,1.685-2.361
		c7.708-1.686,15.429-3.316,23.146-4.965c2.471-0.528,4.941-1.061,7.416-1.592c1.022,2.067-0.569,2.123-1.667,2.362
		C8.97,40.855,2.017,42.321-4.931,43.806C-8.166,44.496-11.4,45.195-14.666,45.896z"/>
	<path display="inline" fill="#FFFFFF" d="M6.366-4.628C2.192-10.793-5.407-13.853-6.415-22.034
		C1.344-18.75,7.973-10.084,6.366-4.628z"/>
	<path display="inline" fill="#FFFFFF" d="M6.709-15.174c-3.431-3.666-6.975-7.18-10.171-10.986
		c-1.492-1.776-2.306-4.12-3.142-6.355C0.939-29.935,8.049-20.751,6.709-15.174z"/>
	<path display="inline" fill="#FFFFFF" d="M47.933-18.533c0.255,1.364,0.415,2.227,0.578,3.089c0.348,1.834,0.117,3.177-1.815,4.298
		c-2.757,1.6-4.174,4.32-3.84,7.571c0.301,2.928,1.707,5.254,4.872,6.278c-1.892-1.905-3.874-3.889-2.443-6.7
		c0.76-1.493,2.21-2.633,3.35-3.932c0.27,0.149,0.54,0.298,0.81,0.449c0.564,4.386,1.127,8.771,1.715,13.354
		c-3.645,1.03-6.791,0.233-9.51-2.169c-3.001-2.653-4.241-6.018-3.302-9.972C39.626-11.668,43.553-15.025,47.933-18.533z"/>
	<path display="inline" fill="#FFFFFF" d="M48.345-26.227c-0.645-4.545-0.538-8.543,1.936-11.992
		c0.713-0.996,2.38-1.308,3.609-1.932c0.419,1.322,1.326,2.707,1.167,3.957C54.522-31.971,51.824-29.062,48.345-26.227z"/>
	<path display="inline" fill="#FFFFFF" d="M50.654-7.801c3.722,0.729,5.578,2.533,6.05,5.618c0.469,3.053-1.083,5.923-4.301,7.599
		C51.816,0.976,51.243-3.357,50.654-7.801z"/>
</g>
<g id="Calque_2_1_">
</g>
<g id="Calque_4" display="none">
	<path display="inline" d="M89.181,93.457c-0.043,10.902-8.64,19.082-19.479,18.714c-4.572-0.154-8.196-2.136-10.154-6.263
		c-2.036-4.288-0.592-8.145,2.393-11.572c6.185-7.1,14.722-9.313,24.769-6.068c0-27.078,0-53.993,0-80.907
		c0.386-0.122,0.771-0.244,1.154-0.366c0.465,0.764,1.29,1.509,1.335,2.298"/>
</g>
<g id="Calque_8" display="none">
	<path display="inline" d="M74.218,7.582c0.459,0.757,1.276,1.494,1.322,2.275c0.513,8.766,4.587,15.721,10.395,22.053
		c3.669,4.002,7.06,8.355,9.989,12.926c6.018,9.376,4.742,19.352,1.255,29.197c-1.47,4.162-3.624,8.082-5.467,12.113
		c-0.428-0.188-0.853-0.379-1.281-0.567c0.907-2.144,1.835-4.275,2.718-6.428c3.573-8.73,5.714-17.588,1.847-26.809
		c-3.58-8.532-9.712-14.174-19.455-16.717c0,1.819,0,3.167,0,4.514c0,17.697,0.051,35.393-0.018,53.09
		c-0.042,10.803-8.561,18.904-19.296,18.54c-4.529-0.154-8.117-2.116-10.059-6.203c-2.019-4.249-0.586-8.07,2.37-11.465
		c6.126-7.033,14.583-9.227,24.539-6.012c0-26.822,0-53.485,0-80.146C73.457,7.823,73.839,7.703,74.218,7.582z"/>
</g>
<g id="Calque_3" display="none">
	<g display="inline">
		<g id="XMLID_13_">
			<g>
				<polygon fill="#FFFFFF" points="109.761,14.942 109.662,15.236 58.742,18.174 37.198,10.34 87.141,7.402 				"/>
				<polygon fill="#FFFFFF" points="58.742,18.174 58.742,112.183 37.198,93.577 37.198,10.34 				"/>
				<polygon fill="#666666" points="109.662,15.236 109.662,102.389 58.742,112.183 58.742,18.174 				"/>
			</g>
			<g>
				<polygon fill="none" stroke="#000000" stroke-width="2" stroke-miterlimit="10" points="109.662,15.236 109.662,102.389 
					58.742,112.183 58.742,18.174 				"/>
				<line fill="none" stroke="#000000" stroke-width="2" stroke-miterlimit="10" x1="58.742" y1="18.174" x2="37.198" y2="10.34"/>
				<line fill="none" stroke="#000000" stroke-width="2" stroke-miterlimit="10" x1="37.198" y1="10.34" x2="87.141" y2="7.402"/>
				<polyline fill="none" stroke="#000000" stroke-width="2" stroke-miterlimit="10" points="87.141,7.402 109.761,14.942 
					110.642,15.236 				"/>
				<line fill="none" stroke="#000000" stroke-width="2" stroke-miterlimit="10" x1="37.198" y1="10.34" x2="37.198" y2="93.577"/>
				
					<line fill="none" stroke="#000000" stroke-width="2" stroke-miterlimit="10" x1="37.198" y1="93.577" x2="58.742" y2="112.183"/>
			</g>
		</g>
	</g>
</g>
<g id="Calque_5" display="none">
	<g display="inline">
		<g id="XMLID_12_">
			<g>
				<path fill="#FFFFFF" d="M33.418,60.147c0-0.871,0.031-1.734,0.082-2.595h1.755c1.653-1.319,4.066-5.752,6.026-11.296
					c2.464-6.968,3.881-13.093,2.403-13.623l-0.103-0.095c8.46-10.07,21.467-16.517,36.037-16.517
					c25.511,0,46.198,19.758,46.198,44.125c0,24.369-20.688,44.127-46.198,44.127C54.105,104.274,33.418,84.517,33.418,60.147z
					 M99.986,34.263c1.006-3.582-3.009-7.88-8.974-9.583c-5.954-1.713-11.592-0.187-12.607,3.396
					c-0.996,3.592,3.019,7.881,8.974,9.594C93.333,39.372,98.98,37.846,99.986,34.263z"/>
				<path fill="#FFFFFF" d="M31.488,42.341c2.937-8.338,4.065-15.698,2.762-17.412l0.379-0.436l8.953,8.046
					C37.75,39.464,34.064,48.114,33.5,57.551H22.833C24.938,56.867,28.603,50.534,31.488,42.341z"/>
				<path fill="#FFFFFF" d="M33.5,57.553c0.564-9.439,4.25-18.086,10.082-25.012l0.103,0.093c1.479,0.531,0.061,6.656-2.403,13.623
					c-1.96,5.545-4.373,9.978-6.026,11.296H33.5L33.5,57.553z"/>
				<path d="M91.013,24.68c5.965,1.703,9.979,6.001,8.974,9.583c-1.008,3.583-6.653,5.108-12.607,3.406
					c-5.955-1.713-9.97-6.001-8.974-9.594C79.421,24.494,85.059,22.968,91.013,24.68z"/>
				<path d="M34.25,24.929c1.304,1.713,0.175,9.074-2.762,17.412c-2.885,8.192-6.55,14.526-8.655,15.211h-0.667
					c-1.899-0.747-0.852-8.659,2.351-17.723c3.212-9.106,7.381-15.928,9.312-15.232C33.992,24.659,34.136,24.763,34.25,24.929z"/>
			</g>
			<g>
				<path fill="none" stroke="#000000" stroke-width="2" stroke-miterlimit="10" d="M43.582,32.541
					c8.46-10.072,21.467-16.519,36.037-16.519c25.511,0,46.198,19.758,46.198,44.125c0,24.369-20.688,44.127-46.198,44.127
					c-25.513,0-46.2-19.758-46.2-44.127c0-0.871,0.031-1.734,0.082-2.595"/>
				<path fill="none" stroke="#000000" stroke-width="2" stroke-miterlimit="10" d="M34.25,24.929
					c1.304,1.713,0.175,9.074-2.762,17.412c-2.885,8.192-6.55,14.526-8.655,15.211c-0.236,0.073-0.452,0.083-0.646,0.011
					c-0.01,0-0.01-0.011-0.021-0.011c-1.899-0.747-0.852-8.659,2.351-17.723c3.212-9.106,7.381-15.928,9.312-15.232
					C33.992,24.659,34.136,24.763,34.25,24.929z"/>
				<path fill="none" stroke="#000000" stroke-width="2" stroke-miterlimit="10" d="M43.685,32.634
					c1.479,0.529,0.061,6.655-2.403,13.623c-1.96,5.544-4.373,9.978-6.026,11.296c-0.421,0.332-0.8,0.456-1.098,0.353"/>
				<polyline fill="none" stroke="#000000" stroke-width="2" stroke-miterlimit="10" points="34.444,24.328 34.629,24.494 
					43.582,32.541 43.685,32.634 				"/>
				<polyline fill="none" stroke="#000000" stroke-width="2" stroke-miterlimit="10" points="21.036,57.553 22.166,57.553 
					22.833,57.553 33.5,57.553 35.255,57.553 35.471,57.553 				"/>
				<path fill="none" stroke="#000000" stroke-width="2" stroke-miterlimit="10" d="M99.986,34.263
					c-1.008,3.583-6.653,5.108-12.607,3.406c-5.955-1.713-9.97-6.001-8.974-9.594c1.016-3.583,6.653-5.107,12.607-3.396
					C96.978,26.383,100.992,30.682,99.986,34.263z"/>
			</g>
		</g>
	</g>
</g>
<g id="Calque_6_1_" display="none">
	<g display="inline" opacity="0.5">
		<path fill="#FFFFFF" d="M21.854,113c0-34.88,0-69.76,0-104.639c34.88,0,69.76,0,104.639,0c0,34.879,0,69.759,0,104.639
			C91.613,113,56.734,113,21.854,113z M67.748,19.458C58.924,17.932,55.373,20.951,55.359,30c-0.003,1.772-0.002,3.542-0.002,5.313
			c0,9.46,0,18.918,0,29.361c-1.56-1.933-2.461-3.062-3.378-4.177c-3.721-4.527-8.586-5.71-12.532-3.055
			c-3.851,2.592-4.774,7.216-2.016,12.349c3.926,7.305,8.064,14.499,12.231,21.672c8.603,14.807,20.251,19.462,39.047,16.478
			c7.995-1.269,14.274-5.848,17.325-13.413c1.991-4.938,3.38-10.426,3.577-15.721c0.496-13.328,0.346-26.693,0.035-40.034
			c-0.076-3.192-0.931-7.182-2.987-9.275c-1.94-1.975-5.932-1.937-9.507-2.917c0.108,0.515-0.01,0.128-0.051-0.269
			c-0.809-7.773-3.566-9.98-11.174-9.058c-0.804,0.098-1.916-0.043-2.471-0.539C76.423,10.452,71.762,11.236,67.748,19.458z"/>
		<path d="M67.748,19.458c4.014-8.221,8.675-9.007,15.712-2.744c0.555,0.495,1.667,0.637,2.471,0.539
			c7.607-0.923,10.364,1.284,11.174,9.058c0.041,0.396,0.159,0.784,0.051,0.269c3.575,0.98,7.566,0.942,9.507,2.917
			c2.056,2.093,2.911,6.083,2.987,9.275c0.31,13.341,0.461,26.706-0.035,40.034c-0.197,5.296-1.586,10.782-3.576,15.721
			c-3.052,7.565-9.331,12.145-17.326,13.413c-18.797,2.984-30.444-1.671-39.047-16.478c-4.167-7.173-8.305-14.367-12.231-21.672
			c-2.759-5.132-1.835-9.757,2.016-12.349c3.946-2.655,8.811-1.472,12.532,3.055c0.919,1.115,1.819,2.244,3.378,4.177
			c0-10.443,0-19.901,0-29.361c0-1.77-0.002-3.542,0.002-5.313C55.373,20.951,58.924,17.931,67.748,19.458z M105.511,59.708
			c-0.031,0-0.061,0-0.092,0c0-7.76,0.042-15.521-0.023-23.279c-0.021-2.666-0.846-4.989-4.101-4.982
			c-3.045,0.005-3.697,2.345-4.03,4.729c-0.188,1.338-0.115,2.716-0.12,4.077c-0.014,5.037,0.102,10.08-0.107,15.109
			c-0.042,1.009-1.283,1.967-1.973,2.95c-0.688-0.999-1.611-1.917-1.997-3.021c-0.339-0.972-0.076-2.155-0.079-3.244
			c-0.019-8.577,0.019-17.156-0.082-25.731c-0.031-2.752-0.733-5.331-4.287-5.212c-3.537,0.118-3.939,2.611-3.926,5.454
			c0.046,8.578,0.102,17.156-0.072,25.731c-0.028,1.343-1.227,2.663-1.883,3.994c-0.735-1.353-2.082-2.694-2.11-4.061
			c-0.188-9.391-0.085-18.786-0.115-28.181c-0.004-1.35,0.205-2.967-0.439-3.98c-0.839-1.318-2.519-3.075-3.679-2.964
			c-1.439,0.136-3.094,1.76-3.945,3.171c-0.684,1.135-0.389,2.907-0.394,4.396c-0.028,9.394,0.05,18.791-0.111,28.182
			c-0.021,1.155-1.256,2.286-1.929,3.429c-0.729-1.127-1.993-2.211-2.088-3.388c-0.282-3.519-0.103-7.072-0.109-10.613
			c-0.011-4.9,0.001-9.802-0.049-14.704c-0.03-2.738-1.502-4.846-4.172-4.248c-1.584,0.354-2.916,2.561-3.977,4.185
			c-0.503,0.769-0.116,2.123-0.116,3.213c-0.002,12.253,0.062,24.507-0.073,36.761c-0.019,1.812-0.986,3.616-1.516,5.425
			c-1.501-1.2-3.186-2.231-4.46-3.635c-1.825-2.007-3.318-4.31-5.013-6.44c-1.8-2.262-4.156-3.478-6.748-1.714
			c-2.505,1.705-1.966,4.276-0.658,6.574c4.635,8.153,9.143,16.388,14.062,24.369c3.682,5.973,8.836,10.663,16.052,11.55
			c5.604,0.688,11.426,0.83,17.01,0.111c6.565-0.846,11.733-4.863,14.176-11.051c1.755-4.449,2.662-9.388,3.053-14.182
			C105.894,72.266,105.511,65.971,105.511,59.708z"/>
	</g>
</g>
<g id="Calque_7" display="none">
	<g display="inline">
		<g id="XMLID_11_">
			<g>
				<path fill="#FFFFFF" d="M104.763,37.598c0,0,2.899-1.61,5.798,1.29c2.815,2.815-0.645,7.729-0.645,7.729
					s-8.374,8.374-27.057,27.058c-18.681,18.682-31.566,9.662-36.721,4.509c-16.104-16.105-9.373-31.276-8.375-34.144
					c0.999-2.866,3.865-12.883,4.509-16.105c0.645-3.22,3.865-7.729,8.376-7.086c4.509,0.645,4.509,5.798,4.509,5.798v11.596
					L83.504,9.896c0,0,5.153-5.154,9.663-0.644c2.575,2.577,0,6.443,0,6.443l3.864-3.866c0,0,5.153-2.577,8.376,0.645
					c3.221,3.222,0,7.731,0,7.731l-2.577,2.577c0,0,5.153-1.289,7.73,1.288c2.576,2.577,0,7.731,0,7.731l-5.153,5.153
					L104.763,37.598z"/>
			</g>
			<g>
				<path fill="none" stroke="#000000" stroke-width="2" stroke-miterlimit="10" d="M105.407,36.955l5.155-5.153
					c0,0,2.575-5.155,0-7.732c-2.578-2.577-7.731-1.288-7.731-1.288l2.576-2.577c0,0,3.223-4.509,0-7.731
					c-3.221-3.221-8.375-0.645-8.375-0.645l-3.865,3.866c0,0,2.576-3.866,0-6.443c-4.509-4.51-9.663,0.644-9.663,0.644
					L55.158,38.242V26.646c0,0,0-5.154-4.509-5.798c-4.51-0.644-7.731,3.866-8.376,7.087c-0.644,3.22-3.511,13.239-4.509,16.105
					c-0.998,2.866-7.73,18.038,8.375,34.144c5.154,5.153,18.04,14.173,36.721-4.51c18.683-18.683,27.057-27.058,27.057-27.058
					s3.46-4.916,0.645-7.73c-2.899-2.899-5.798-1.289-5.798-1.289"/>
				<line fill="none" stroke="#000000" stroke-width="2" stroke-miterlimit="10" x1="93.167" y1="15.695" x2="72.553" y2="36.31"/>
				<line fill="none" stroke="#000000" stroke-width="2" stroke-miterlimit="10" x1="102.83" y1="22.781" x2="80.927" y2="44.684"/>
				<polyline fill="none" stroke="#000000" stroke-width="2" stroke-miterlimit="10" points="105.407,36.955 104.763,37.598 
					87.369,54.993 				"/>
			</g>
		</g>
	</g>
	<g display="inline">
		<g id="XMLID_10_">
			<g>
				<path fill="#FFFFFF" d="M99.073,46.832c0,0,1.72-2.836,5.674-1.755c3.84,1.049,3.274,7.034,3.274,7.034
					S104.9,63.536,97.938,89.022c-6.963,25.486-22.623,24.042-29.654,22.122c-21.973-6.001-23.647-22.515-24.202-25.501
					c-0.554-2.984-3.03-13.105-4.067-16.222c-1.038-3.117-0.477-8.63,3.759-10.307c4.236-1.676,6.791,2.801,6.791,2.801l5.75,10.07
					l10.562-38.671c0,0,1.922-7.031,8.073-5.351c3.515,0.961,3.192,5.595,3.192,5.595l1.44-5.272c0,0,3.198-4.793,7.594-3.592
					c4.394,1.2,3.833,6.714,3.833,6.714l-0.961,3.516c0,0,3.837-3.674,7.353-2.714c3.516,0.959,3.832,6.713,3.832,6.713l-1.919,7.03
					L99.073,46.832z"/>
			</g>
			<g>
				<path fill="none" stroke="#000000" stroke-width="2" stroke-miterlimit="10" d="M99.314,45.954l1.919-7.032
					c0,0-0.316-5.753-3.832-6.713c-3.517-0.96-7.353,2.714-7.353,2.714l0.961-3.516c0,0,0.561-5.513-3.833-6.714
					c-4.395-1.2-7.594,3.592-7.594,3.592l-1.44,5.272c0,0,0.322-4.634-3.192-5.595c-6.151-1.68-8.073,5.351-8.073,5.351
					L56.315,71.985l-5.75-10.071c0,0-2.555-4.475-6.791-2.799c-4.236,1.675-4.797,7.19-3.759,10.307
					c1.037,3.116,3.514,13.237,4.068,16.222c0.555,2.984,2.229,19.499,24.202,25.5c7.031,1.919,22.691,3.365,29.654-22.123
					c6.962-25.485,10.083-36.912,10.083-36.912s0.566-5.983-3.273-7.033c-3.956-1.08-5.674,1.757-5.674,1.757"/>
				<line fill="none" stroke="#000000" stroke-width="2" stroke-miterlimit="10" x1="78.143" y1="33.559" x2="70.462" y2="61.684"/>
				<line fill="none" stroke="#000000" stroke-width="2" stroke-miterlimit="10" x1="90.049" y1="34.923" x2="81.888" y2="64.805"/>
				<polyline fill="none" stroke="#000000" stroke-width="2" stroke-miterlimit="10" points="99.314,45.954 99.073,46.832 
					92.592,70.562 				"/>
			</g>
		</g>
	</g>
</g>
<g id="Calque_7_-_copie" display="none">
	<g display="inline">
		<g id="XMLID_9_">
			<g>
				<path d="M93.167,15.695l3.865-3.866c0,0,5.154-2.577,8.375,0.645c3.223,3.222,0,7.731,0,7.731l-2.576,2.577
					c0,0,5.153-1.289,7.731,1.288c2.575,2.577,0,7.731,0,7.731l-5.155,5.153l-0.644,0.645c0,0,2.9-1.61,5.799,1.29
					c2.814,2.815-0.646,7.729-0.646,7.729s-8.375,8.374-27.057,27.058c-18.682,18.682-31.567,9.662-36.721,4.509
					c-16.104-16.105-9.373-31.276-8.375-34.144c0.999-2.866,3.865-12.883,4.509-16.105c0.645-3.22,3.865-7.729,8.376-7.086
					c4.51,0.645,4.51,5.798,4.51,5.798v11.596L83.504,9.896c0,0,5.153-5.154,9.663-0.644C95.743,11.83,93.167,15.695,93.167,15.695z
					"/>
			</g>
			<g>
				<path fill="none" stroke="#FFFFFF" stroke-width="2" stroke-miterlimit="10" d="M105.407,36.955l5.155-5.153
					c0,0,2.575-5.155,0-7.732c-2.578-2.577-7.731-1.288-7.731-1.288l2.576-2.577c0,0,3.223-4.509,0-7.731
					c-3.221-3.221-8.375-0.645-8.375-0.645l-3.865,3.866c0,0,2.576-3.866,0-6.443c-4.509-4.51-9.663,0.644-9.663,0.644
					L55.158,38.242V26.646c0,0,0-5.154-4.509-5.798c-4.51-0.644-7.731,3.866-8.376,7.087c-0.644,3.22-3.511,13.239-4.509,16.105
					c-0.998,2.866-7.73,18.038,8.375,34.144c5.154,5.153,18.04,14.173,36.721-4.51c18.683-18.683,27.057-27.058,27.057-27.058
					s3.46-4.916,0.645-7.73c-2.899-2.899-5.798-1.289-5.798-1.289"/>
				<line fill="none" stroke="#FFFFFF" stroke-width="2" stroke-miterlimit="10" x1="93.167" y1="15.695" x2="72.553" y2="36.31"/>
				<line fill="none" stroke="#FFFFFF" stroke-width="2" stroke-miterlimit="10" x1="102.83" y1="22.781" x2="80.927" y2="44.684"/>
				<polyline fill="none" stroke="#FFFFFF" stroke-width="2" stroke-miterlimit="10" points="105.407,36.955 104.763,37.598 
					87.369,54.993 				"/>
			</g>
		</g>
	</g>
	<g display="inline">
		<g id="XMLID_8_">
			<g>
				<path d="M99.073,46.832c0,0,1.72-2.836,5.674-1.755c3.84,1.049,3.274,7.034,3.274,7.034S104.9,63.536,97.938,89.022
					c-6.963,25.486-22.623,24.042-29.654,22.122c-21.973-6.001-23.647-22.515-24.202-25.501c-0.554-2.984-3.03-13.105-4.067-16.222
					c-1.038-3.117-0.477-8.63,3.759-10.307c4.236-1.676,6.791,2.801,6.791,2.801l5.75,10.07l10.562-38.671
					c0,0,1.922-7.031,8.073-5.351c3.515,0.961,3.192,5.595,3.192,5.595l1.44-5.272c0,0,3.198-4.793,7.594-3.592
					c4.394,1.2,3.833,6.714,3.833,6.714l-0.961,3.516c0,0,3.837-3.674,7.353-2.714c3.516,0.959,3.832,6.713,3.832,6.713l-1.919,7.03
					L99.073,46.832z"/>
			</g>
			<g>
				<path fill="none" stroke="#FFFFFF" stroke-width="2" stroke-miterlimit="10" d="M99.314,45.954l1.919-7.032
					c0,0-0.316-5.753-3.832-6.713c-3.517-0.96-7.353,2.714-7.353,2.714l0.961-3.516c0,0,0.561-5.513-3.833-6.714
					c-4.395-1.2-7.594,3.592-7.594,3.592l-1.44,5.272c0,0,0.322-4.634-3.192-5.595c-6.151-1.68-8.073,5.351-8.073,5.351
					L56.315,71.985l-5.75-10.071c0,0-2.555-4.475-6.791-2.799c-4.236,1.675-4.797,7.19-3.759,10.307
					c1.037,3.116,3.514,13.237,4.068,16.222c0.555,2.984,2.229,19.499,24.202,25.5c7.031,1.919,22.691,3.365,29.654-22.123
					c6.962-25.485,10.083-36.912,10.083-36.912s0.566-5.983-3.273-7.033c-3.956-1.08-5.674,1.757-5.674,1.757"/>
				<line fill="none" stroke="#FFFFFF" stroke-width="2" stroke-miterlimit="10" x1="78.143" y1="33.559" x2="70.462" y2="61.684"/>
				<line fill="none" stroke="#FFFFFF" stroke-width="2" stroke-miterlimit="10" x1="90.049" y1="34.923" x2="81.888" y2="64.805"/>
				<polyline fill="none" stroke="#FFFFFF" stroke-width="2" stroke-miterlimit="10" points="99.314,45.954 99.073,46.832 
					92.592,70.562 				"/>
			</g>
		</g>
	</g>
</g>
<g id="Calque_10_1_">
	<g>
		<g id="XMLID_7_">
			<g>
				<polygon points="99.35,37.426 94.11,44.182 88.936,40.162 92.485,32.079 				"/>
				<polygon points="106,42.6 99.05,48.031 94.11,44.182 99.35,37.426 				"/>
				<polygon points="59.812,88.66 79.334,88.66 84.616,112.183 20.465,112.183 25.79,88.425 26.88,88.66 				"/>
				<polygon points="61.094,7.402 62.527,13.818 42.555,13.818 43.987,7.402 				"/>
			</g>
			<g>
				<polygon fill="none" stroke="#000000" stroke-width="4" stroke-miterlimit="10" points="25.79,88.425 20.465,112.183 
					84.616,112.183 79.334,88.66 74.931,69.052 62.527,13.818 61.094,7.402 43.987,7.402 42.555,13.818 				"/>
				<polyline fill="none" stroke="#000000" stroke-width="4" stroke-miterlimit="10" points="26.88,88.66 59.812,88.66 
					79.334,88.66 80.338,88.66 				"/>
				<line fill="none" stroke="#000000" stroke-width="4" stroke-miterlimit="10" x1="99.35" y1="37.426" x2="106" y2="28.786"/>
				<polyline fill="none" stroke="#000000" stroke-width="4" stroke-miterlimit="10" points="48.264,103.63 59.812,88.66 
					74.931,69.052 94.11,44.182 				"/>
				<polygon fill="none" stroke="#000000" stroke-width="4" stroke-miterlimit="10" points="99.35,37.426 106,42.6 99.05,48.031 
					94.11,44.182 88.936,40.162 92.485,32.079 				"/>
				<polyline fill="none" stroke="#000000" stroke-width="4" stroke-miterlimit="10" points="41.849,13.818 42.555,13.818 
					62.527,13.818 63.232,13.818 				"/>
			</g>
		</g>
	</g>
</g>
</svg>
